<svg id="레이어_1" data-name="레이어 1" xmlns="http://www.w3.org/2000/svg" viewBox="0 0 461.23 87.7"><defs><style>.cls-1{fill:#df000e;}</style></defs><path class="cls-1" d="M19.77,61.22h18v27H63V61.22H81.05v68.46H63V102.73H37.74v27h-18Z" transform="translate(-19.77 -56.43)"/><path class="cls-1" d="M88.43,104.23c0-14.91,9.93-25,26.48-25s26.43,10.09,26.38,25-9.84,25-26.38,25S88.48,119.14,88.43,104.23ZM115,116.73c5,0,9.3-4.91,9.25-12.59S120,91.51,115,91.55c-5.25,0-9.48,4.82-9.53,12.59S109.75,116.69,115,116.73Z" transform="translate(-19.77 -56.43)"/><path class="cls-1" d="M236.4,104.23c0-15,10.17-25,26-25,15.22,0,25.29,9.24,25.34,24.82v4H254.08v.63c0,5,3.36,8.57,9.08,8.57,3.93,0,7-1.57,8.14-4.38h16.35c-1.74,10-10.82,16.34-24.87,16.34C246.42,129.23,236.45,119.9,236.4,104.23Zm34.8-5.62c-.05-4.38-3.64-7.46-8.42-7.41s-8.55,3-8.7,7.41Z" transform="translate(-19.77 -56.43)"/><path class="cls-1" d="M296.62,77.44h14.69V83c2.36-3.43,7.93-6.23,16.17-6.23,11.16,0,21.8,7.46,21.8,24.91,0,15.61-12.24,23.68-22,23.68a23.85,23.85,0,0,1-15.46-6.29l-.31,25H296.62Zm28.94,35c4.81,0,9.11-3.41,9.11-10.82,0-7.16-4.3-10.64-9.11-10.64-4.1,0-9.27,3.28-9.22,10.64S321.46,112.45,325.56,112.45Z" transform="translate(-19.77 -56.43)"/><path class="cls-1" d="M375.69,129.55H357.33V56.43h18.36Z" transform="translate(-19.77 -56.43)"/><path class="cls-1" d="M404.59,129c-10.26,0-19.84-7.5-19.84-18.21V79.86h17.17v27.41c0,5,2.68,7.94,7.26,7.94s7.49-3,7.45-8V79.86h17.16v31.55c0,9.35-10,17.55-19,17.55h0" transform="translate(-19.77 -56.43)"/><path class="cls-1" d="M460.88,90.57c-2.71,0-4.92,1.25-4.88,3.39,0,1.48.91,2.86,4.19,3.57l8.23,1.79c8.43,1.79,12.5,6,12.58,13.13-.08,10.26-8.35,16.78-19.74,16.78-12.5,0-19.71-6.52-20.58-16.34H455c.46,3.13,2.86,4.87,6.32,4.91,2.9,0,5-1.25,5-3.39-.08-2-1.57-3-4.88-3.75l-7.24-1.52c-8.39-1.78-12.58-6.65-12.58-14.19,0-10,7.24-15.72,18.9-15.72s18.94,6.12,19.36,16.25H466.67A5.42,5.42,0,0,0,460.88,90.57Z" transform="translate(-19.77 -56.43)"/><path class="cls-1" d="M206.43,80.44c-8.09,0-14.58,3.84-16.49,9.73h-.61c-1.2-5.89-7.24-9.73-14.88-9.73-5.08,0-9.36,1.19-12.31,3.8V81H150.56v48.59h17.72V101.16c-.05-4.38,2.61-7.1,6.83-7.15s6.89,2.68,6.94,7v28.57H199V101.07c-.05-4.33,2.56-7,6.84-7.06,4.12,0,6.89,2.64,6.94,7.06v28.48H226.6V96.87C226.55,86.83,216.84,80.44,206.43,80.44Z" transform="translate(-19.77 -56.43)"/></svg>