<svg id="레이어_1" data-name="레이어 1" xmlns="http://www.w3.org/2000/svg" viewBox="0 0 100 100"><path d="M76.23,26.23H73.77V23.77a23.77,23.77,0,0,0-47.54,0v2.46H23.77a23.77,23.77,0,0,0,0,47.54h2.46v2.46a23.77,23.77,0,1,0,47.54,0V73.77h2.46a23.77,23.77,0,0,0,0-47.54ZM31.37,23.77a18.63,18.63,0,1,1,37.26,0v2.46H31.37Zm37.26,7.6V68.63H31.37V31.37ZM23.77,68.63a18.63,18.63,0,0,1,0-37.26h2.46V68.63Zm44.86,7.6a18.63,18.63,0,1,1-37.26,0V73.77H68.63Zm7.6-7.6H73.77V31.37h2.46a18.63,18.63,0,0,1,0,37.26Z" transform="translate(0)"/></svg>