<?xml version="1.0" encoding="utf-8"?>
<!-- Generator: Adobe Illustrator 26.0.2, SVG Export Plug-In . SVG Version: 6.00 Build 0)  -->
<svg version="1.1" id="레이어_1" xmlns="http://www.w3.org/2000/svg" xmlns:xlink="http://www.w3.org/1999/xlink" x="0px"
	 y="0px" viewBox="0 0 800 800" style="enable-background:new 0 0 800 800;" xml:space="preserve">
<style type="text/css">
	.st0{fill:#FFFFFF;}
	.st1{fill:#969696;}
	.st2{fill:#0072DD;}
</style>
<rect x="200" y="100" class="st0" width="50" height="50"/>
<rect x="250" y="100" class="st0" width="50" height="50"/>
<rect x="400" y="100" class="st0" width="50" height="50"/>
<rect x="450" y="100" class="st0" width="50" height="50"/>
<rect x="600" y="100" class="st0" width="50" height="50"/>
<rect x="100" y="200" class="st0" width="50" height="50"/>
<rect x="150" y="200" class="st0" width="50" height="50"/>
<rect x="300" y="200" class="st0" width="50" height="50"/>
<rect x="350" y="200" class="st0" width="50" height="50"/>
<rect x="500" y="200" class="st0" width="50" height="50"/>
<rect x="550" y="200" class="st0" width="50" height="50"/>
<rect x="200" y="300" class="st0" width="50" height="50"/>
<rect x="250" y="300" class="st0" width="50" height="50"/>
<rect x="400" y="300" class="st0" width="50" height="50"/>
<rect x="450" y="300" class="st0" width="50" height="50"/>
<rect x="600" y="300" class="st0" width="50" height="50"/>
<rect x="650" y="300" class="st0" width="50" height="50"/>
<rect x="200" y="150" class="st0" width="50" height="50"/>
<rect x="250" y="150" class="st0" width="50" height="50"/>
<rect x="400" y="150" class="st0" width="50" height="50"/>
<rect x="450" y="150" class="st0" width="50" height="50"/>
<rect x="600" y="150" class="st0" width="50" height="50"/>
<rect x="650" y="150" class="st0" width="50" height="50"/>
<rect x="100" y="250" class="st0" width="50" height="50"/>
<rect x="150" y="250" class="st0" width="50" height="50"/>
<rect x="300" y="250" class="st0" width="50" height="50"/>
<rect x="350" y="250" class="st0" width="50" height="50"/>
<rect x="500" y="250" class="st0" width="50" height="50"/>
<rect x="550" y="250" class="st0" width="50" height="50"/>
<rect x="200" y="350" class="st0" width="50" height="50"/>
<rect x="250" y="350" class="st0" width="50" height="50"/>
<rect x="400" y="350" class="st0" width="50" height="50"/>
<rect x="450" y="350" class="st0" width="50" height="50"/>
<rect x="600" y="350" class="st0" width="50" height="50"/>
<rect x="650" y="350" class="st0" width="50" height="50"/>
<rect x="100" y="400" class="st0" width="50" height="50"/>
<rect x="150" y="400" class="st0" width="50" height="50"/>
<rect x="300" y="400" class="st0" width="50" height="50"/>
<rect x="350" y="400" class="st0" width="50" height="50"/>
<rect x="500" y="400" class="st0" width="50" height="50"/>
<rect x="550" y="400" class="st0" width="50" height="50"/>
<rect x="100" y="450" class="st0" width="50" height="50"/>
<rect x="150" y="450" class="st0" width="50" height="50"/>
<rect x="300" y="450" class="st0" width="50" height="50"/>
<rect x="350" y="450" class="st0" width="50" height="50"/>
<rect x="500" y="450" class="st0" width="50" height="50"/>
<rect x="550" y="450" class="st0" width="50" height="50"/>
<rect x="200" y="500" class="st0" width="50" height="50"/>
<rect x="250" y="500" class="st0" width="50" height="50"/>
<rect x="400" y="500" class="st0" width="50" height="50"/>
<rect x="450" y="500" class="st0" width="50" height="50"/>
<rect x="600" y="500" class="st0" width="50" height="50"/>
<rect x="650" y="500" class="st0" width="50" height="50"/>
<rect x="200" y="550" class="st0" width="50" height="50"/>
<rect x="250" y="550" class="st0" width="50" height="50"/>
<rect x="400" y="550" class="st0" width="50" height="50"/>
<rect x="450" y="550" class="st0" width="50" height="50"/>
<rect x="600" y="550" class="st0" width="50" height="50"/>
<rect x="650" y="550" class="st0" width="50" height="50"/>
<rect x="100" y="600" class="st0" width="50" height="50"/>
<rect x="150" y="600" class="st0" width="50" height="50"/>
<rect x="300" y="600" class="st0" width="50" height="50"/>
<rect x="350" y="600" class="st0" width="50" height="50"/>
<rect x="500" y="600" class="st0" width="50" height="50"/>
<rect x="550" y="600" class="st0" width="50" height="50"/>
<rect x="150" y="650" class="st0" width="50" height="50"/>
<rect x="300" y="650" class="st0" width="50" height="50"/>
<rect x="350" y="650" class="st0" width="50" height="50"/>
<rect x="500" y="650" class="st0" width="50" height="50"/>
<rect x="550" y="650" class="st0" width="50" height="50"/>
<g>
	<rect x="150" y="100" class="st1" width="50" height="50"/>
	<rect x="300" y="100" class="st1" width="50" height="50"/>
	<rect x="350" y="100" class="st1" width="50" height="50"/>
	<rect x="500" y="100" class="st1" width="50" height="50"/>
	<rect x="550" y="100" class="st1" width="50" height="50"/>
	<rect x="200" y="200" class="st1" width="50" height="50"/>
	<rect x="250" y="200" class="st1" width="50" height="50"/>
	<rect x="400" y="200" class="st1" width="50" height="50"/>
	<rect x="450" y="200" class="st1" width="50" height="50"/>
	<rect x="600" y="200" class="st1" width="50" height="50"/>
	<rect x="650" y="200" class="st1" width="50" height="50"/>
	<rect x="100" y="300" class="st1" width="50" height="50"/>
	<rect x="150" y="300" class="st1" width="50" height="50"/>
	<rect x="300" y="300" class="st1" width="50" height="50"/>
	<rect x="350" y="300" class="st1" width="50" height="50"/>
	<rect x="500" y="300" class="st1" width="50" height="50"/>
	<rect x="550" y="300" class="st1" width="50" height="50"/>
	<rect x="100" y="150" class="st1" width="50" height="50"/>
	<rect x="150" y="150" class="st1" width="50" height="50"/>
	<rect x="300" y="150" class="st1" width="50" height="50"/>
	<rect x="350" y="150" class="st1" width="50" height="50"/>
	<rect x="500" y="150" class="st1" width="50" height="50"/>
	<rect x="550" y="150" class="st1" width="50" height="50"/>
	<rect x="200" y="250" class="st1" width="50" height="50"/>
	<rect x="250" y="250" class="st1" width="50" height="50"/>
	<rect x="400" y="250" class="st1" width="50" height="50"/>
	<rect x="450" y="250" class="st1" width="50" height="50"/>
	<rect x="600" y="250" class="st1" width="50" height="50"/>
	<rect x="650" y="250" class="st1" width="50" height="50"/>
	<rect x="100" y="350" class="st1" width="50" height="50"/>
	<rect x="150" y="350" class="st1" width="50" height="50"/>
	<rect x="300" y="350" class="st1" width="50" height="50"/>
	<rect x="350" y="350" class="st1" width="50" height="50"/>
	<rect x="500" y="350" class="st1" width="50" height="50"/>
	<rect x="550" y="350" class="st1" width="50" height="50"/>
	<rect x="200" y="400" class="st1" width="50" height="50"/>
	<rect x="250" y="400" class="st1" width="50" height="50"/>
	<rect x="400" y="400" class="st1" width="50" height="50"/>
	<rect x="450" y="400" class="st1" width="50" height="50"/>
	<rect x="600" y="400" class="st1" width="50" height="50"/>
	<rect x="650" y="400" class="st1" width="50" height="50"/>
	<rect x="200" y="450" class="st1" width="50" height="50"/>
	<rect x="250" y="450" class="st1" width="50" height="50"/>
	<rect x="400" y="450" class="st1" width="50" height="50"/>
	<rect x="450" y="450" class="st1" width="50" height="50"/>
	<rect x="600" y="450" class="st1" width="50" height="50"/>
	<rect x="650" y="450" class="st1" width="50" height="50"/>
	<rect x="100" y="500" class="st1" width="50" height="50"/>
	<rect x="150" y="500" class="st1" width="50" height="50"/>
	<rect x="300" y="500" class="st1" width="50" height="50"/>
	<rect x="350" y="500" class="st1" width="50" height="50"/>
	<rect x="500" y="500" class="st1" width="50" height="50"/>
	<rect x="550" y="500" class="st1" width="50" height="50"/>
	<rect x="100" y="550" class="st1" width="50" height="50"/>
	<rect x="150" y="550" class="st1" width="50" height="50"/>
	<rect x="300" y="550" class="st1" width="50" height="50"/>
	<rect x="350" y="550" class="st1" width="50" height="50"/>
	<rect x="500" y="550" class="st1" width="50" height="50"/>
	<rect x="550" y="550" class="st1" width="50" height="50"/>
	<rect x="200" y="600" class="st1" width="50" height="50"/>
	<rect x="250" y="600" class="st1" width="50" height="50"/>
	<rect x="400" y="600" class="st1" width="50" height="50"/>
	<rect x="450" y="600" class="st1" width="50" height="50"/>
	<rect x="600" y="600" class="st1" width="50" height="50"/>
	<rect x="650" y="600" class="st1" width="50" height="50"/>
	<rect x="200" y="650" class="st1" width="50" height="50"/>
	<rect x="250" y="650" class="st1" width="50" height="50"/>
	<rect x="400" y="650" class="st1" width="50" height="50"/>
	<rect x="450" y="650" class="st1" width="50" height="50"/>
	<rect x="600" y="650" class="st1" width="50" height="50"/>
</g>
<g>
	<rect x="150" y="50" class="st2" width="50" height="50"/>
	<rect x="200" y="50" class="st2" width="50" height="50"/>
	<rect x="250" y="50" class="st2" width="50" height="50"/>
	<rect x="300" y="50" class="st2" width="50" height="50"/>
	<rect x="350" y="50" class="st2" width="50" height="50"/>
	<rect x="400" y="50" class="st2" width="50" height="50"/>
	<rect x="450" y="50" class="st2" width="50" height="50"/>
	<rect x="500" y="50" class="st2" width="50" height="50"/>
	<rect x="550" y="50" class="st2" width="50" height="50"/>
	<rect x="600" y="50" class="st2" width="50" height="50"/>
	<rect x="50" y="200" class="st2" width="50" height="50"/>
	<rect x="700" y="200" class="st2" width="50" height="50"/>
	<rect x="50" y="300" class="st2" width="50" height="50"/>
	<rect x="700" y="300" class="st2" width="50" height="50"/>
	<rect x="50" y="150" class="st2" width="50" height="50"/>
	<rect x="700" y="150" class="st2" width="50" height="50"/>
	<rect x="50" y="250" class="st2" width="50" height="50"/>
	<rect x="700" y="250" class="st2" width="50" height="50"/>
	<rect x="50" y="350" class="st2" width="50" height="50"/>
	<rect x="700" y="350" class="st2" width="50" height="50"/>
	<rect x="50" y="400" class="st2" width="50" height="50"/>
	<rect x="700" y="400" class="st2" width="50" height="50"/>
	<rect x="50" y="450" class="st2" width="50" height="50"/>
	<rect x="700" y="450" class="st2" width="50" height="50"/>
	<rect x="50" y="500" class="st2" width="50" height="50"/>
	<rect x="700" y="500" class="st2" width="50" height="50"/>
	<rect x="50" y="550" class="st2" width="50" height="50"/>
	<rect x="700" y="550" class="st2" width="50" height="50"/>
	<rect x="50" y="600" class="st2" width="50" height="50"/>
	<rect x="700" y="600" class="st2" width="50" height="50"/>
	<rect x="150" y="700" class="st2" width="50" height="50"/>
	<rect x="200" y="700" class="st2" width="50" height="50"/>
	<rect x="250" y="700" class="st2" width="50" height="50"/>
	<rect x="300" y="700" class="st2" width="50" height="50"/>
	<rect x="350" y="700" class="st2" width="50" height="50"/>
	<rect x="400" y="700" class="st2" width="50" height="50"/>
	<rect x="450" y="700" class="st2" width="50" height="50"/>
	<rect x="500" y="700" class="st2" width="50" height="50"/>
	<rect x="550" y="700" class="st2" width="50" height="50"/>
	<rect x="600" y="700" class="st2" width="50" height="50"/>
</g>
<g>
	<rect x="100" y="50" width="50" height="50"/>
	<rect x="650" y="50" width="50" height="50"/>
	<rect y="100" width="50" height="50"/>
	<rect x="50" y="100" width="50" height="50"/>
	<rect x="100" y="100" width="50" height="50"/>
	<rect x="650" y="100" width="50" height="50"/>
	<rect x="700" y="100" width="50" height="50"/>
	<rect x="750" y="100" width="50" height="50"/>
	<rect x="100" width="50" height="50"/>
	<rect x="650" width="50" height="50"/>
	<rect y="650" width="50" height="50"/>
	<rect x="50" y="650" width="50" height="50"/>
	<rect x="100" y="650" width="50" height="50"/>
	<rect x="650" y="650" width="50" height="50"/>
	<rect x="700" y="650" width="50" height="50"/>
	<rect x="750" y="650" width="50" height="50"/>
	<rect x="100" y="700" width="50" height="50"/>
	<rect x="650" y="700" width="50" height="50"/>
	<rect x="100" y="750" width="50" height="50"/>
	<rect x="650" y="750" width="50" height="50"/>
	<g>
		<rect y="50" width="50" height="50"/>
		<rect x="50" y="50" width="50" height="50"/>
		<rect x="700" y="50" width="50" height="50"/>
		<rect x="750" y="50" width="50" height="50"/>
		<rect width="50" height="50"/>
		<rect x="50" width="50" height="50"/>
		<rect x="700" width="50" height="50"/>
		<rect x="750" width="50" height="50"/>
		<rect y="700" width="50" height="50"/>
		<rect x="50" y="700" width="50" height="50"/>
		<rect x="700" y="700" width="50" height="50"/>
		<rect x="750" y="700" width="50" height="50"/>
		<rect y="750" width="50" height="50"/>
		<rect x="50" y="750" width="50" height="50"/>
		<rect x="700" y="750" width="50" height="50"/>
		<rect x="750" y="750" width="50" height="50"/>
	</g>
</g>
</svg>
