<svg id="Layer_1" data-name="Layer 1" xmlns="http://www.w3.org/2000/svg" xmlns:xlink="http://www.w3.org/1999/xlink" viewBox="0 0 194.8 34.1"><defs><style>.cls-1{fill:none;}.cls-2{clip-path:url(#clip-path);}.cls-3{clip-path:url(#clip-path-2);}.cls-4{fill:#1d1d1b;}.cls-5{clip-path:url(#clip-path-3);}.cls-6{clip-path:url(#clip-path-5);}.cls-7{clip-path:url(#clip-path-7);}.cls-8{clip-path:url(#clip-path-9);}.cls-9{clip-path:url(#clip-path-11);}.cls-10{clip-path:url(#clip-path-12);}.cls-11{clip-path:url(#clip-path-13);}</style><clipPath id="clip-path"><path class="cls-1" d="M164,3.9c-2.1-2.7-4.9-3.8-9.6-3.8C147.5.1,143,4,143,10V34.1h4.4V10.5c0-4.2,2.4-6.2,7.2-6.2,4.6,0,7.2,2.1,7.2,5.8v24h4.4v-24c0-3.7,2.6-5.8,7.2-5.8,4.9,0,7.3,2,7.3,6.2V34.1h4.4V10c0-6-4.5-9.9-11.4-9.9-4.8,0-7.6,1.1-9.7,3.8"/></clipPath><clipPath id="clip-path-2"><rect class="cls-1" y="-0.9" width="240" height="85"/></clipPath><clipPath id="clip-path-3"><path class="cls-1" d="M126.3.1h-5.6c-8,0-11.7,5.2-11.7,10.1V23.9c0,4.9,3.6,10.1,11.6,10.1h5.7c8,0,11.6-5.2,11.6-10.1V10.2C138,5.4,134.4.1,126.3.1Zm7.3,23.3c0,4.1-2.7,6.5-7.5,6.5h-5.3c-4.8,0-7.5-2.3-7.5-6.5V10.8c0-4.1,2.7-6.5,7.5-6.5h5.3c4.8,0,7.5,2.4,7.5,6.5Z"/></clipPath><clipPath id="clip-path-5"><path class="cls-1" d="M91.8.1C83.7.1,80,5.4,80,10.2V23.9C80,28.8,83.7,34,91.8,34h5c4.1,0,6.8-.6,9-2l.3-.2-2.5-3.6-.3.1c-1.6,1-3.7,1.3-7,1.3H92c-4.9,0-7.6-2.3-7.6-6.5V10.8c0-4.2,2.7-6.5,7.6-6.5h4.2c3.4,0,5.4.4,7,1.3l.3.2L106,2.2l-.3-.2c-2.2-1.4-4.8-2-9-2Z"/></clipPath><clipPath id="clip-path-7"><path class="cls-1" d="M60.2.1a20.87,20.87,0,0,0-7.8,1.2l-.4.1,2.2,3.8.3-.1c1.5-.6,3.1-.8,6.2-.8H64c4.8,0,7.6,2.4,7.6,6.5V23.4c0,4.1-2.8,6.5-7.6,6.5H58.6c-4.9,0-7.3-1.9-7.3-6S53.7,18,58.6,18h7.5V13.8H58.4c-7.3,0-11.5,3.7-11.5,10.2,0,6.2,4.4,10.1,11.5,10.1h5.8c8.1,0,11.7-5.2,11.7-10.1V10.2C75.9,5.3,72.2.1,64.2.1Z"/></clipPath><clipPath id="clip-path-9"><path class="cls-1" d="M37.6.1V23.7c0,4.2-2.4,6.2-7.2,6.2-4.6,0-7.2-2.1-7.2-5.8V.1H18.8v24c0,3.7-2.5,5.8-7.2,5.8-4.9,0-7.2-2-7.2-6.2V.1H0V24.2c0,6,4.5,9.9,11.4,9.9,4.6,0,7.4-1.1,9.6-3.9,2.1,2.7,4.9,3.9,9.6,3.9,6.9,0,11.4-3.9,11.4-9.9V.1Z"/></clipPath><clipPath id="clip-path-11"><rect class="cls-1" x="189" y="0.5" width="5.8" height="6.3"/></clipPath><clipPath id="clip-path-12"><rect class="cls-1" x="189" y="0.1" width="6" height="7"/></clipPath><clipPath id="clip-path-13"><path class="cls-1" d="M194,5.9a2.81,2.81,0,0,1-3.9.2l-.2-.2a3.14,3.14,0,0,1,0-4.4,2.79,2.79,0,0,1,3.8-.3l.3.3a3.1,3.1,0,0,1,.9,2.2A4.31,4.31,0,0,1,194,5.9Zm-3.8-4.2a2.64,2.64,0,0,0-.7,1.9,2.64,2.64,0,0,0,.7,1.9,2.27,2.27,0,0,0,3.3.2l.2-.2a2.64,2.64,0,0,0,.7-1.9,2.64,2.64,0,0,0-.7-1.9,2.34,2.34,0,0,0-1.8-.8,2.14,2.14,0,0,0-1.7.8Zm1.7.2a2.77,2.77,0,0,1,.9.1,1.05,1.05,0,0,1,.5.9.91.91,0,0,1-.3.7c-.1.1-.3.1-.5.2.2,0,.4.2.6.3s.2.3.2.5v.8h-.5V4.9c0-.4-.1-.7-.3-.8a1.27,1.27,0,0,0-.6-.1h-.4V5.4h-.6V1.9Zm.6.6a1.48,1.48,0,0,0-.7-.1h-.5V3.6h.5a.75.75,0,0,0,.5-.1c.2-.1.4-.3.3-.5a.44.44,0,0,0-.1-.5Z"/></clipPath></defs><g class="cls-2"><g class="cls-3"><rect class="cls-4" x="138" y="-4.9" width="52" height="44"/></g></g><g class="cls-5"><g class="cls-3"><rect class="cls-4" x="104" y="-4.9" width="39" height="44"/></g></g><g class="cls-6"><g class="cls-3"><rect class="cls-4" x="75" y="-4.9" width="36" height="44"/></g></g><g class="cls-7"><g class="cls-3"><rect class="cls-4" x="42" y="-4.9" width="39" height="44"/></g></g><g class="cls-8"><g class="cls-3"><rect class="cls-4" x="-5" y="-4.9" width="52" height="44"/></g></g><g class="cls-9"><g class="cls-10"><g class="cls-11"><g class="cls-10"><rect class="cls-4" x="184" y="-4.5" width="15.8" height="16.3"/></g></g></g></g></svg>