<svg id="레이어_1" data-name="레이어 1" xmlns="http://www.w3.org/2000/svg" viewBox="0 0 297.67 301.15"><defs><style>.cls-1{fill:#fb3;}</style></defs><path class="cls-1" d="M230.8,80.09c-3.36.51-6.26-1.68-7-6.45s1.42-7.72,4.81-8.21a4.88,4.88,0,0,1,5.64,3.17l3-.45c-1.29-4.11-4.94-6.06-9.08-5.45-5.07.76-8.25,5.12-7.31,11.38s5.21,9.5,10.31,8.74a7.88,7.88,0,0,0,7.11-7.77l-3,.42A4.91,4.91,0,0,1,230.8,80.09Z" transform="translate(-103.84 -62.59)"/><path class="cls-1" d="M255.21,68.75h-.16l.08-2.35-2.81-.1-.53,14.83,2.92.1.33-9a3.31,3.31,0,0,1,3.64-3.2,6.34,6.34,0,0,1,1.52.22l.1-2.79a11.34,11.34,0,0,0-1.23-.1A3.88,3.88,0,0,0,255.21,68.75Z" transform="translate(-103.84 -62.59)"/><path class="cls-1" d="M284.15,81.56l-2.89-.6a3.43,3.43,0,0,1-3.48.93c-2.38-.49-3.69-2.39-3.2-5.18l10.33,2.13.21-1c1.09-5.26-1.64-8-4.94-8.64-4.06-.84-7.37,1.69-8.28,6.16s1.08,8,5.37,8.89C280.46,84.9,283,83.78,284.15,81.56Zm-4.43-10a3.62,3.62,0,0,1,2.82,4.57L275,74.57A4,4,0,0,1,279.72,71.55Z" transform="translate(-103.84 -62.59)"/><path class="cls-1" d="M306.62,77.36c-3.25-1.35-6.05-.6-7.24,1.57l2.68,1.12c.7-.89,2-1.23,3.55-.56,1.83.76,2.42,2.06,1.76,3.6l-.45,1.11c-.64-.24-2.75-1-3.67-1.31-2.55-.86-5.55-1.16-6.84,2-1.13,2.67.28,5,2.88,6.09a4.69,4.69,0,0,0,5-.47l.1,0-.78,1.87,2.62,1.09,3.8-9.11C311.65,80.39,308.8,78.27,306.62,77.36Zm-1,10.06c-.68,1.63-2.6,2.54-4.8,1.64-1.51-.64-2.32-1.77-1.77-3.08s2-1.55,3.77-.94c.66.23,2.67.9,3.31,1.13Z" transform="translate(-103.84 -62.59)"/><path class="cls-1" d="M331.58,90.93,329,89.3l1.9-3-2.45-1.55-1.9,3-1.85-1.16-1.24,2,1.85,1.17-4.68,7.39c-1.47,2.27-.4,4.44,1.53,5.66a14.18,14.18,0,0,0,1.61.89l1.35-2.15c-.36-.19-.93-.49-1.29-.72-.79-.52-1.32-1.21-.43-2.64l4.35-6.88,2.57,1.62Z" transform="translate(-103.84 -62.59)"/><rect class="cls-1" x="332.22" y="104.86" width="14.84" height="2.93" transform="translate(-64.32 235.02) rotate(-49.9)"/><path class="cls-1" d="M348.42,98.77a1.79,1.79,0,0,0-.29-2.5,1.81,1.81,0,0,0-2.53.12,1.79,1.79,0,0,0,.31,2.51A1.77,1.77,0,0,0,348.42,98.77Z" transform="translate(-103.84 -62.59)"/><polygon class="cls-1" points="246.65 64.96 261.38 59.28 259.32 56.91 248.26 61.56 248.17 61.46 254.31 51.15 252.25 48.78 244.58 62.59 246.65 64.96"/><path class="cls-1" d="M363.6,146.61c1.65,2.81,4.19,4,6.6,3.32l-1.49-2.55a3.46,3.46,0,0,1-3-2c-1.23-2.1-.7-4.34,1.7-5.85l5.34,9.11.9-.53c4.63-2.71,4.81-6.54,3.1-9.45-2.09-3.58-6.19-4.35-10.12-2S361.38,142.83,363.6,146.61Zm11.07-6.68a3.63,3.63,0,0,1-1.5,5.16l-3.88-6.62A4,4,0,0,1,374.67,139.93Z" transform="translate(-103.84 -62.59)"/><rect class="cls-1" x="386.84" y="176.85" width="2.52" height="8.78" transform="translate(-134.3 27.67) rotate(-12.77)"/><path class="cls-1" d="M381.8,217.56l-.61,6.39c-.57,6,2.83,9.82,9,10.42s10.16-2.54,10.71-8.35l.63-6.59Zm16.49,8c-.41,4.3-3.19,6.26-7.84,5.82s-7-2.9-6.63-7.36l.31-3.24,14.48,1.38Z" transform="translate(-103.84 -62.59)"/><path class="cls-1" d="M395.72,250.45a1.8,1.8,0,0,0-2.15,1.34,1.72,1.72,0,1,0,3.32.91A1.8,1.8,0,0,0,395.72,250.45Z" transform="translate(-103.84 -62.59)"/><rect class="cls-1" x="382.74" y="241.79" width="2.92" height="14.84" transform="translate(-61.28 491.58) rotate(-74.72)"/><path class="cls-1" d="M379.69,263.81c-4.31-2-7.82-.6-9.27,2.58a4.49,4.49,0,0,0,.46,5l-.08.17-2.66-1.22c-2.1-1-2.41-2.72-1.43-4.83.79-1.76,2-2.67,3.36-2.34l1.24-2.72c-2.63-.92-5.17.65-6.73,4.05s-1.21,6.83,2.26,8.41l13.81,6.32,1.18-2.59-2.19-1,.08-.18a4.55,4.55,0,0,0,4.16-2.84C385.37,269.34,384,265.78,379.69,263.81Zm1.67,8.31c-1,2.3-3.46,2.69-6.19,1.44s-3.86-3.3-2.84-5.57,3.43-2.72,6.07-1.49S382.45,269.78,381.36,272.12Z" transform="translate(-103.84 -62.59)"/><path class="cls-1" d="M376.25,294.55a1.85,1.85,0,1,0,.4,2.5A1.8,1.8,0,0,0,376.25,294.55Z" transform="translate(-103.84 -62.59)"/><rect class="cls-1" x="364.25" y="282.28" width="2.93" height="14.86" transform="translate(-182.36 369.73) rotate(-56.18)"/><path class="cls-1" d="M362.54,306.38l-1.73-1.54-1.46,1.63-6.54-5.81c-2-1.82-4.32-1.11-5.83.6a14.51,14.51,0,0,0-1.14,1.44l1.9,1.69c.25-.33.64-.84.92-1.16.64-.69,1.41-1.11,2.68,0l6.09,5.41-2,2.27,1.74,1.54,2-2.27,2.66,2.36,1.92-2.16L361.09,308Z" transform="translate(-103.84 -62.59)"/><path class="cls-1" d="M341.82,321.42c.45,1,.14,2.31-1.2,3.39-1.54,1.24-3,1.14-4-.18l-.75-.92,2.9-2.6c2-1.83,3.67-4.32,1.53-6.95-1.81-2.27-4.53-2.15-6.73-.38a4.69,4.69,0,0,0-1.95,4.59l-.09.07-1.27-1.57L328,318.65l6.19,7.69c2.71,3.35,5.94,1.86,7.78.37,2.74-2.2,3.41-5,2.07-7.11Zm-7.3.63-.86-1a3.5,3.5,0,0,1,.85-5c1.29-1,2.66-1.19,3.55-.08s.43,2.46-1,3.76Z" transform="translate(-103.84 -62.59)"/><rect class="cls-1" x="319.12" y="325.24" width="2.93" height="19.79" transform="translate(-228.13 141.46) rotate(-29.85)"/><rect class="cls-1" x="280.61" y="348.3" width="8.78" height="2.52" transform="translate(-180.95 18.09) rotate(-14.21)"/><rect class="cls-1" x="236.69" y="352.3" width="19.8" height="3.01" transform="translate(-217.26 528.66) rotate(-88.53)"/><path class="cls-1" d="M227.42,351c-.43,2.32-2.1,3.39-4.07,3s-2.84-1.84-2.45-4l1.68-8.92-2.85-.54L218,349.81c-.7,3.61.94,5.88,3.93,6.45a4.43,4.43,0,0,0,4.79-1.77l.16,0-.45,2.39,2.77.52,2.75-14.6-2.87-.54Z" transform="translate(-103.84 -62.59)"/><polygon class="cls-1" points="98.68 278.09 96.86 278.87 94.63 270.81 91.3 269.49 94.14 279.73 86.21 283.44 89.46 284.73 97.23 281.07 97.46 281.17 93.33 291.59 96.05 292.67 103.34 274.26 100.63 273.18 98.68 278.09"/><rect class="cls-1" x="160.2" y="318.07" width="2.52" height="8.78" transform="translate(-294.62 182.53) rotate(-51.02)"/><polygon class="cls-1" points="31.01 218.36 36.26 226.3 31.22 229.63 26.39 222.33 24.25 223.75 29.07 231.04 24.08 234.35 18.9 226.5 16.73 227.94 23.57 238.29 40.08 227.37 33.18 216.93 31.01 218.36"/><polygon class="cls-1" points="27.56 206.38 26.33 203.43 19.93 202.51 23.78 197.3 22.56 194.37 17.48 201.51 8.87 200.09 10.09 203.05 16.68 203.86 12.6 209.08 13.84 212.06 18.93 205 27.56 206.38"/><path class="cls-1" d="M127.73,241.37,120,243l0-.16a4.56,4.56,0,0,0,1.71-4.73c-.73-3.53-4.08-5.51-8.76-4.55s-7,4.11-6.26,7.64a4.47,4.47,0,0,0,3.4,3.66l0,.24-2.35.48.57,2.79,20-4.08ZM115,244c-3,.62-5.29-.29-5.78-2.75s1.36-4.27,4.23-4.86,5.4.27,5.93,2.79S118,243.4,115,244Z" transform="translate(-103.84 -62.59)"/><path class="cls-1" d="M119.18,213.29c-.06-3.27-1.71-5.53-4.12-6.14l0,2.95a3.45,3.45,0,0,1,1.66,3.2c0,2.43-1.53,4.13-4.36,4.26L112.24,207l-1,0c-5.38.09-7.41,3.34-7.36,6.71.07,4.15,3.26,6.83,7.83,6.74S119.25,217.66,119.18,213.29Zm-12.93.38a3.63,3.63,0,0,1,3.85-3.76l.13,7.67A4,4,0,0,1,106.25,213.67Z" transform="translate(-103.84 -62.59)"/><path class="cls-1" d="M109.32,184.56l-2.75-.45a12,12,0,0,0-.26,1.2,3.87,3.87,0,0,0,1.93,4.14l0,.16-2.32-.38-.45,2.78,14.64,2.4.48-2.88-8.93-1.47a3.31,3.31,0,0,1-2.72-4A6.65,6.65,0,0,1,109.32,184.56Z" transform="translate(-103.84 -62.59)"/><path class="cls-1" d="M106.2,169.71a1.8,1.8,0,0,0,2.2-1.26,1.73,1.73,0,1,0-3.3-1A1.81,1.81,0,0,0,106.2,169.71Z" transform="translate(-103.84 -62.59)"/><rect class="cls-1" x="116.22" y="163.92" width="2.93" height="14.85" transform="translate(-184.71 170.29) rotate(-72.74)"/><path class="cls-1" d="M122.92,157.07c4.12,2.05,8,1,10-2.94,1.45-2.93,1-5.69-.84-7.35l-1.32,2.65a3.46,3.46,0,0,1,0,3.61c-1.08,2.18-3.26,3-5.83,1.78l4.69-9.46-.93-.46c-4.82-2.39-8.12-.44-9.62,2.59C117.22,151.2,118.82,155.05,122.92,157.07Zm-1.69-8.54a3.63,3.63,0,0,1,5.14-1.57L123,153.84A4,4,0,0,1,121.23,148.53Z" transform="translate(-103.84 -62.59)"/><path class="cls-1" d="M134.58,122.77a4.44,4.44,0,0,0-.57,5.08l-.1.13L132,126.5l-1.71,2.24,11.8,9,1.77-2.32-7-5.35c-1.88-1.44-2.09-3.4-.87-5s2.92-1.7,4.65-.4l7.21,5.51,1.76-2.3-7.49-5.73C139.19,119.91,136.43,120.35,134.58,122.77Z" transform="translate(-103.84 -62.59)"/><path class="cls-1" d="M162.52,108.47a3.12,3.12,0,0,1-.75,4c-1.82,1.64-4.33,1.19-6.5-1.24s-2.22-4.92-.43-6.54a3.19,3.19,0,0,1,4.14-.24l2.12-1.89c-2.24-2-5.39-1.9-7.92.35-3.13,2.79-3.06,7,0,10.32s7,4,10.28,1.1c2.61-2.33,2.91-5.43,1.23-7.79Z" transform="translate(-103.84 -62.59)"/><path class="cls-1" d="M184.09,94.69a3.48,3.48,0,0,1-1.94,3c-2.09,1.25-4.34.73-5.87-1.66l9.06-5.42-.53-.89c-2.76-4.61-6.59-4.76-9.49-3-3.55,2.12-4.29,6.23-1.93,10.14s6.22,5.17,10,2.93c2.81-1.68,3.94-4.24,3.26-6.64Zm-7.51-5.9a3.63,3.63,0,0,1,5.18,1.46l-6.59,3.94A4,4,0,0,1,176.58,88.79Z" transform="translate(-103.84 -62.59)"/></svg>