<svg id="레이어_1" data-name="레이어 1" xmlns="http://www.w3.org/2000/svg" viewBox="0 0 53.1 94.39"><defs><style>.cls-1{fill:#fff;}</style></defs><path class="cls-1" d="M75.63,3.24c0,.28,0,.56.05.85a58.29,58.29,0,0,1-2.29,5.56A14.28,14.28,0,0,1,70.73,13c-.41.38-.9.59-1.15,1.1a9.41,9.41,0,0,1-1.5,2.35,7.21,7.21,0,0,1,.31,2.05c0,.2-.18.41-.21.63-.05.42.11.77-.18,1,0,1.18-.53,1.94-.8,3-.32,1.27-.74,3-.09,4.39.53,1.16,1.68,1.92,2.38,3,.34.53.62,1.19,1,1.77a5.72,5.72,0,0,1,1,3.05,4,4,0,0,0,2.46-1.62c.63-.63,1.32-1.56,2.54-1.31.38,1.26-.47,2.31-1.14,3.18a19.3,19.3,0,0,1-1.47,1.92c-.07.15-.06.37-.15.49-.27.27-.6.47-.68.9-.35,0-.39.42-.76.53a7.05,7.05,0,0,1-1.83-.07,7.2,7.2,0,0,1-.48,1.19c-.79,1.08-2.46,1.44-3.65,2.17a3.93,3.93,0,0,0,1.84,1.17c.64.24,1.72.53,1.84,1.17s-.78,1.21-.75,1.69.58.56.73.93a1.36,1.36,0,0,1,0,.85c-.12.52-.55.6-.86.91-.14.13-.28.45-.51.7s-.48.37-.57.58c-.17.37,0,.83-.36,1.18s-.57,0-.9.12-.49.54-.82.66a1.63,1.63,0,0,1-1.29-.23,4.74,4.74,0,0,1-3.3,0c-.3-.16-1-.67-.81-1.29s1.3-.65,2-.85a13.85,13.85,0,0,1,1.85-.66c.08-.09.27-.23.41-.4s0-.23.1-.31.14,0,.18-.07a6.85,6.85,0,0,0,.3-1,3.45,3.45,0,0,0,.18-1.11c-.08-.36-.42-.4-.53-.7-1.49-.65-2.71-1.58-4.23-2.18a5.88,5.88,0,0,0-.58-.64c-.2-.18-.49-.3-.64-.51a2.8,2.8,0,0,1-.48-1.74A8.53,8.53,0,0,1,60,38.14c.44-.93.94-1.77,1.25-2.4a13.91,13.91,0,0,0-2.11-3.59,13.86,13.86,0,0,1-2.33-3.33A6.77,6.77,0,0,1,57,25.09c-.2-.84.53-2.19-.57-2.4-1.31.53-1.83,1.75-2.57,2.78.18.49.81.41,1.09.91a3.59,3.59,0,0,1,0,2.44,7.93,7.93,0,0,1-1.73.71c-.67-.36-.85-1.28-1.5-1.67-.12-.94-.83-1.19-1.44-1.56a11,11,0,0,0-2.23.38,16.23,16.23,0,0,0-2.18.19,7.71,7.71,0,0,0-1.07.43c-.87.42-1.2-1-1.56-.21,0,.93-.62,1.67-.83,2.37-.1.32-.05.67-.13,1s-.27.66-.36,1-.12.73-.24,1.05c-.91,2.4-2.87,3.79-4,6.09.11.48.55.59.85.87a3.92,3.92,0,0,1,0,4.75A15.51,15.51,0,0,1,36,47a21,21,0,0,0-1.87,1.28c-1.37.76-3,.51-3.28,2.21,0,.19.05.45,0,.73a6.2,6.2,0,0,0-.07.79c.1.53.67.92,1.06,1.34s1,.8,1.17,1.21a1.75,1.75,0,0,1,0,.85,1.08,1.08,0,0,1-1-.12c-.34.25-.36.55-.9.24a3.17,3.17,0,0,1-.37-.16c-.08-.06-.11-.24-.21-.35s-.25-.15-.32-.22c-.28-.32-.41-.73-.67-1C29,53.14,28.3,53,27.9,52.53s0-2-.17-2.91c-.09-.39-.32-.54-.49-.89.33-.27.28-.71.56-1s.86-.39,1.3-.63a9.3,9.3,0,0,0,1.51-1.25,3.47,3.47,0,0,1,.53-2.28,6,6,0,0,1-2.87-3c-.32,0-.51.38-.82.54s-.48.14-.72.23a5,5,0,0,1-3.27.32c0-.08,0-.17,0-.25a10.76,10.76,0,0,1,1.45-2.1,5.39,5.39,0,0,1,1.23-.8c.64-.22,1.49,0,2.12-.32a1.4,1.4,0,0,0,.56-.76c.12-.33,0-.78.18-1.17,0-.1.21-.25.28-.38a1.91,1.91,0,0,1,1-1,18.92,18.92,0,0,0,1-1.89,4.67,4.67,0,0,0,.39-.63c.16-.41.2-1,.34-1.48a20.24,20.24,0,0,0,.8-4.81c0-1.49-.12-3.05,0-4.27a6.19,6.19,0,0,1,.7-2.48c.2-.44.4-1,.59-1.31.27-.49,1.39-1.48,1.46-2a9.14,9.14,0,0,0-.17-1.88c-.07-.25-.38-.56-.48-.82a17.2,17.2,0,0,0-.83-1.9c-.3-.67-1-1.11-1.38-1.75a9.63,9.63,0,0,1-.5-1.19c-.51-1.06-1.55-2-1.19-3.52A1.67,1.67,0,0,1,32.71,5a21.22,21.22,0,0,1,2.14,1.15c.12.09.27.07.38.17a4.53,4.53,0,0,1,1.31,1.44c.3.78-.14,1.87.05,2.8.11.58.92.78,1.4.81.24,0,.5-.17.83-.29a7.86,7.86,0,0,1,.9-.3c1.65-.39,4.8-.1,5,1.22.11.69-.38.72-.27,1.6-.49.6-1.38,1.62-1.82,2.26.78.79,1.86,1.23,2.28,2.43.84-.4,1.67-.4,2.26-.93A5.26,5.26,0,0,0,48,16a6,6,0,0,0,.71-1.38c-.34-.37-1-.47-1.16-1.09a1.83,1.83,0,0,1,.26-1.6,3.37,3.37,0,0,1,2.82.19c1.07-1.62,2.11-3.26,4.4-3.8.65.59.36,1.88.16,2.67a2.61,2.61,0,0,0-1.55,1.5c-.19.34-.57.74-.55,1s.61.53.55,1c.62.74,1.55,2.34,2.58,2.34.53,0,1.2-.57,1.9-.85a5.3,5.3,0,0,1,2.17-.38,4.36,4.36,0,0,0-.79-1c-.32-.31-.81-.52-.8-1.05s1-1.09,1.56-1.44a9.86,9.86,0,0,1,2.08-1,15.41,15.41,0,0,1,4.19-.25c-.14-1.49,1.56-1.5,2.62-2a6.26,6.26,0,0,0,2.25-2c.89-1.18,1.53-2.2,2.36-3.43.5-.25,1-.72,1.67-.59a4.65,4.65,0,0,0,.26.41ZM51.1,16C50,18,49,20.12,47.81,22.06c-.89.4-1.75,1.16-2.7,1.57-.5.21-1.32.17-1.41.88a2.9,2.9,0,0,0,1.82-.17,7.54,7.54,0,0,1,1.74-.48c1.7-.23,2.43.58,3.93.5a19,19,0,0,0,1.75-2.24,7.14,7.14,0,0,0,1.27-1.18,6,6,0,0,1-1.46-1.07,8.36,8.36,0,0,1-1.16-3,2,2,0,0,0-.42-1Z" transform="translate(-23.45 -2.81)"/><path class="cls-1" d="M29.32,61.67v1.49H25.41V65H28.8v1.39H25.41v3.34H23.63V61.67Zm2.81,0v8.09H30.35V61.67Zm6.36,8a3.1,3.1,0,0,1-1.16.25,4.13,4.13,0,0,1-1.68-.33,3.52,3.52,0,0,1-1.25-.89,3.83,3.83,0,0,1-.78-1.33,4.65,4.65,0,0,1-.27-1.65,5.06,5.06,0,0,1,.27-1.68,4.06,4.06,0,0,1,.78-1.36,3.63,3.63,0,0,1,1.25-.91,4.19,4.19,0,0,1,2.88-.14,3.68,3.68,0,0,1,1.06.55,2.92,2.92,0,0,1,.77.9,3,3,0,0,1,.38,1.22H39a1.7,1.7,0,0,0-.61-1,1.84,1.84,0,0,0-1.1-.34,2.13,2.13,0,0,0-1,.23,1.87,1.87,0,0,0-.68.63,2.84,2.84,0,0,0-.39.89,4.46,4.46,0,0,0-.12,1,4.07,4.07,0,0,0,.12,1,2.84,2.84,0,0,0,.38.87,2.06,2.06,0,0,0,.69.62,2.11,2.11,0,0,0,1,.23A1.91,1.91,0,0,0,38.68,68a1.94,1.94,0,0,0,.56-1.3H37.46V65.39h3.4v4.37H39.73l-.18-.91a2.7,2.7,0,0,1-1.06.85Zm5.59-8v3.1h3.28v-3.1h1.78v8.09H47.36V66.27H44.08v3.49H42.3V61.67Zm6,1.5v-1.5h6.64v1.5H54.28v6.6H52.5v-6.6Zm9.35-1.5v8.09H57.64V61.67Zm3.33,0,3.38,5.43h0V61.67h1.67v8.09H66l-3.37-5.42h0v5.42H61V61.67Zm11.43,8A3.15,3.15,0,0,1,73,70a4.08,4.08,0,0,1-1.67-.33,3.52,3.52,0,0,1-1.25-.89,3.83,3.83,0,0,1-.78-1.33A4.89,4.89,0,0,1,69,65.75a4.82,4.82,0,0,1,.28-1.68,4.06,4.06,0,0,1,.78-1.36,3.54,3.54,0,0,1,1.25-.91,4.19,4.19,0,0,1,2.88-.14,3.68,3.68,0,0,1,1.06.55,2.92,2.92,0,0,1,.77.9,3,3,0,0,1,.38,1.22h-1.7a1.71,1.71,0,0,0-.62-1A1.82,1.82,0,0,0,73,63a2.13,2.13,0,0,0-1,.23,1.87,1.87,0,0,0-.68.63,2.61,2.61,0,0,0-.38.89,4,4,0,0,0-.13,1,4.62,4.62,0,0,0,.12,1,2.84,2.84,0,0,0,.38.87,2.06,2.06,0,0,0,.69.62,2.11,2.11,0,0,0,1,.23,1.74,1.74,0,0,0,1.92-1.75H73.14V65.39h3.41v4.37H75.42l-.18-.91a2.7,2.7,0,0,1-1.06.85ZM32.7,75.28l3,8.09H33.88l-.61-1.8h-3l-.64,1.8H27.81l3.06-8.09Zm.1,5-1-3h0l-1.06,3Zm5.4-5,3.38,5.43h0V75.28h1.67v8.09H41.48L38.11,78h0v5.42H36.43V75.28Zm8.41,0v8.09H44.83V75.28Zm4.07,0,1.9,5.56h0l1.79-5.56H56.9v8.09H55.23V77.63h0l-2,5.74H51.86l-2-5.68h0v5.68H48.18V75.28h2.5Zm11.82,0,3,8.09H63.68l-.61-1.8H60l-.63,1.8h-1.8l3.07-8.09Zm.1,5-1-3h0l-1.05,3Zm5.41-5v6.6H72v1.5H66.23v-8.1ZM25.71,90.41v-1.5h6.64v1.5H29.92V97H28.14v-6.6Zm13.62-1.5v1.5H35.06v1.73H39v1.39H35.06v2h4.36V97H33.28v-8.1ZM42,95a1.16,1.16,0,0,0,.39.46,1.49,1.49,0,0,0,.57.26,2.59,2.59,0,0,0,.68.09,4.75,4.75,0,0,0,.51,0,1.78,1.78,0,0,0,.51-.16,1,1,0,0,0,.4-.31.75.75,0,0,0,.16-.5.72.72,0,0,0-.21-.54,1.82,1.82,0,0,0-.55-.34,6.82,6.82,0,0,0-.77-.23l-.87-.23a7.06,7.06,0,0,1-.89-.28,2.61,2.61,0,0,1-.77-.42,2,2,0,0,1-.55-.65,2,2,0,0,1-.21-1,2.11,2.11,0,0,1,.27-1.08,2.39,2.39,0,0,1,.69-.76,3,3,0,0,1,1-.46,4.53,4.53,0,0,1,1.09-.14,4.57,4.57,0,0,1,1.22.14,2.88,2.88,0,0,1,1,.46,2.34,2.34,0,0,1,.72.81,2.58,2.58,0,0,1,.26,1.19H44.94a1.45,1.45,0,0,0-.16-.6,1,1,0,0,0-.34-.37,1.44,1.44,0,0,0-.5-.19,3.05,3.05,0,0,0-.6-.06,3,3,0,0,0-.43,0,1.29,1.29,0,0,0-.4.16,1,1,0,0,0-.29.28.84.84,0,0,0-.11.44.74.74,0,0,0,.09.38.77.77,0,0,0,.36.27,3.7,3.7,0,0,0,.74.25l1.23.32c.15,0,.36.08.63.16a3.17,3.17,0,0,1,.79.38,2.42,2.42,0,0,1,.69.7,1.92,1.92,0,0,1,.29,1.12,2.53,2.53,0,0,1-.21,1,2.23,2.23,0,0,1-.65.82A3.06,3.06,0,0,1,45,97a5,5,0,0,1-1.46.19A5.07,5.07,0,0,1,42.27,97a3.32,3.32,0,0,1-1.11-.51,2.56,2.56,0,0,1-.77-.9,2.61,2.61,0,0,1-.27-1.29h1.72A1.47,1.47,0,0,0,42,95Zm5.36-4.6v-1.5H54v1.5H51.56V97H49.78v-6.6Zm9.34-1.5V97H54.91v-8.1Zm3.34,0,3.38,5.43h0V88.91H65.1V97H63.32L60,91.59h0V97H58.26v-8.1H60Zm11.43,8a3,3,0,0,1-1.17.25,4.21,4.21,0,0,1-1.67-.32A3.69,3.69,0,0,1,67.37,96a4,4,0,0,1-.79-1.34,5.3,5.3,0,0,1,0-3.34A4,4,0,0,1,67.37,90,3.54,3.54,0,0,1,68.62,89a4,4,0,0,1,1.67-.33,3.78,3.78,0,0,1,1.21.19,3.1,3.1,0,0,1,1,.55,2.9,2.9,0,0,1,.78.89,3.05,3.05,0,0,1,.37,1.23H72a1.65,1.65,0,0,0-.61-1,1.76,1.76,0,0,0-1.1-.34,2,2,0,0,0-1,.23,1.87,1.87,0,0,0-.68.63,2.64,2.64,0,0,0-.38.88,4.35,4.35,0,0,0,0,2,2.84,2.84,0,0,0,.38.87,2,2,0,0,0,.68.61,2,2,0,0,0,1,.24A1.74,1.74,0,0,0,72.22,94H70.43V92.63h3.4V97H72.7l-.19-.92a2.64,2.64,0,0,1-1.05.86Z" transform="translate(-23.45 -2.81)"/></svg>