<?xml version="1.0" encoding="utf-8"?>
<!-- Generator: Adobe Illustrator 26.0.2, SVG Export Plug-In . SVG Version: 6.00 Build 0)  -->
<svg version="1.1" id="레이어_1" xmlns="http://www.w3.org/2000/svg" xmlns:xlink="http://www.w3.org/1999/xlink" x="0px"
	 y="0px" viewBox="0 0 82 111.3" style="enable-background:new 0 0 82 111.3;" xml:space="preserve">
<style type="text/css">
	.st0{fill:#FFFFFF;}
</style>
<g>
	<path class="st0" d="M71.2,0.5l0.1,1C70.2,3.9,69.7,6,68.6,8c-0.8,1.5-1.9,2.8-3.1,3.9c-0.5,0.5-1.1,0.7-1.3,1.3
		c-0.4,1-1,1.9-1.7,2.8c0.2,0.8,0.4,1.6,0.4,2.4c0,0.2-0.2,0.5-0.2,0.7c-0.1,0.5,0.1,0.9-0.2,1.2c0.1,1.4-0.6,2.3-0.9,3.5
		c-0.4,1.5-0.9,3.5-0.1,5.2c0.6,1.3,2,2.2,2.8,3.5c0.4,0.6,0.7,1.4,1.1,2.1c0.7,1.1,1.1,2.3,1.2,3.6c1.4-0.2,2.1-1.1,2.9-1.9
		s1.6-1.8,3-1.5c0.4,1.5-0.6,2.7-1.3,3.7c-0.5,0.8-1.1,1.5-1.7,2.3c-0.1,0.2-0.1,0.4-0.2,0.6c-0.3,0.3-0.7,0.5-0.8,1
		c-0.4,0-0.5,0.5-0.9,0.6c-0.7,0.2-1.5-0.1-2.2-0.1c-0.1,0.5-0.3,0.9-0.6,1.4c-0.9,1.3-2.9,1.7-4.3,2.5c0.6,0.7,1.3,1.2,2.1,1.4
		c0.8,0.3,2,0.6,2.2,1.4c0.2,0.8-0.9,1.4-0.9,2s0.7,0.7,0.9,1.1c0.1,0.3,0.1,0.7,0,1c-0.1,0.6-0.6,0.7-1,1.1
		c-0.2,0.2-0.3,0.5-0.6,0.8s-0.6,0.4-0.7,0.7c-0.2,0.4,0,1-0.4,1.4c-0.5,0.2-0.7,0-1.1,0.1s-0.6,0.6-1,0.8c-0.5,0.1-1,0-1.4-0.3
		c-1.3,0.5-2.6,0.5-3.9,0c-0.4-0.2-1.1-0.8-1-1.5s1.5-0.8,2.3-1c0.7-0.3,1.4-0.6,2.2-0.8c0.1-0.1,0.3-0.3,0.5-0.5s0-0.3,0.1-0.4
		s0.2,0,0.2-0.1c0.2-0.4,0.3-0.8,0.4-1.2c0.1-0.4,0.2-0.9,0.2-1.3c-0.1-0.4-0.5-0.5-0.6-0.8c-1.7-0.8-3.2-1.8-5-2.6
		c-0.2-0.3-0.4-0.5-0.7-0.8c-0.3-0.2-0.5-0.4-0.8-0.6c-0.4-0.6-0.6-1.3-0.6-2c0.2-1.1,0.5-2.2,1.1-3.2c0.5-1.1,1.1-2.1,1.5-2.8
		c-0.6-1.5-1.4-2.9-2.5-4.2c-1-1.3-2.2-2.5-2.7-3.9c-0.4-1.4-0.3-3,0.2-4.4c-0.2-1,0.6-2.6-0.7-2.8c-1.5,0.6-2.2,2-3,3.3
		c0.2,0.6,1,0.5,1.3,1.1c0.3,0.9,0.3,1.9,0,2.9c-0.6,0.4-1.3,0.6-2,0.8c-0.8-0.4-1-1.5-1.8-2c-0.1-1.1-1-1.4-1.7-1.8
		c-0.9,0.1-1.8,0.2-2.6,0.4c-0.9,0-1.7,0.1-2.6,0.2c-0.4,0.1-0.9,0.3-1.3,0.5c-1,0.5-1.4-1.2-1.8-0.2c0.1,1.1-0.7,2-1,2.8
		c-0.1,0.4,0,0.8-0.1,1.2s-0.3,0.8-0.4,1.2s-0.1,0.8-0.3,1.2c-1.1,2.8-3.4,4.5-4.7,7.2c0.1,0.6,0.6,0.7,1,1c1.4,1.7,1.1,3.9,0.1,5.6
		c-0.9,1.2-1.9,2.3-3,3.3c-0.8,0.3-1.3,1-2.2,1.5c-1.6,0.9-3.6,0.6-3.8,2.6c0,0.3,0,0.6,0,0.8c-0.1,0.3-0.1,0.6-0.1,0.9
		c0.1,0.6,0.8,1.1,1.2,1.6s1.2,0.9,1.4,1.4c0.1,0.3,0.1,0.7,0,1c-0.4,0.2-0.9,0.1-1.2-0.1c-0.4,0.3-0.4,0.6-1.1,0.3
		c-0.1-0.1-0.3-0.1-0.4-0.2s-0.1-0.3-0.2-0.4s-0.3-0.2-0.4-0.3c-0.3-0.4-0.5-0.8-0.8-1.2c-0.7-0.7-1.5-1-2-1.5s0-2.4-0.2-3.4
		c-0.1-0.5-0.4-0.6-0.6-1c0.4-0.3,0.3-0.8,0.7-1.2s1-0.5,1.5-0.7c0.6-0.4,1.2-0.9,1.8-1.5c-0.1-0.9,0.1-1.9,0.6-2.7
		c-1.5-0.7-2.7-2-3.4-3.5c-0.4,0-0.6,0.5-1,0.6c-0.2,0.1-0.6,0.2-0.8,0.3c-0.9,0.3-2.6,0.9-3.8,0.4c0-0.1,0-0.2,0-0.3
		c0.5-0.9,1-1.7,1.7-2.5c0.4-0.4,0.9-0.7,1.5-0.9c0.7-0.3,1.8,0,2.5-0.4c0.3-0.2,0.6-0.5,0.7-0.9c0.1-0.4,0-0.9,0.2-1.4
		c0-0.1,0.2-0.3,0.3-0.5c0.2-0.5,0.6-1,1.2-1.2c0.4-0.7,0.8-1.5,1.2-2.2c0.1-0.3,0.4-0.5,0.5-0.8c0.2-0.5,0.2-1.1,0.4-1.7
		c0.6-1.8,0.9-3.7,1-5.7c0-1.8-0.1-3.6,0-5c0.1-1,0.3-2,0.8-2.9c0.2-0.5,0.5-1.2,0.7-1.5c0.3-0.6,1.6-1.7,1.7-2.3
		c0-0.7-0.1-1.5-0.2-2.2c-0.1-0.3-0.4-0.7-0.6-1c-0.3-0.8-0.6-1.5-1-2.2c-0.4-0.8-1.1-1.3-1.6-2c-0.2-0.5-0.4-0.9-0.6-1.4
		c-0.6-1.3-1.8-2.4-1.4-4.1c0.7-0.4,1.5-0.3,2.1,0.1C21.5,3,22.4,3.5,23.2,4c0.1,0.1,0.3,0.1,0.4,0.2c0.6,0.4,1.2,1,1.5,1.7
		c0.3,0.9-0.2,2.2,0,3.3c0.1,0.7,1.1,0.9,1.7,1c0.4-0.1,0.7-0.2,1-0.4c0.4-0.1,0.8-0.3,1.1-0.4c1.9-0.5,5.6-0.1,5.9,1.4
		c0.1,0.8-0.4,0.8-0.3,1.9c-0.6,0.7-1.6,1.9-2.1,2.7c0.9,0.9,2.2,1.5,2.7,2.8c1-0.5,2-0.5,2.7-1.1c0.4-0.5,0.7-1,0.9-1.6
		c0.4-0.5,0.6-1,0.8-1.6c-0.4-0.4-1.1-0.5-1.4-1.3c-0.2-0.6-0.1-1.3,0.3-1.9c1.1-0.3,2.7-0.4,3.3,0.2c1.3-1.9,2.5-3.8,5.2-4.5
		c0.8,0.7,0.4,2.2,0.2,3.2c-0.8,0.3-1.5,0.9-1.8,1.8c-0.2,0.4-0.7,0.9-0.7,1.2c0,0.5,0.7,0.6,0.7,1.2c0.7,0.9,1.8,2.8,3,2.8
		c0.6,0,1.4-0.7,2.2-1c0.8-0.3,1.7-0.5,2.6-0.4c-0.3-0.4-0.6-0.8-0.9-1.2c-0.4-0.4-1-0.6-0.9-1.2s1.1-1.3,1.8-1.7
		c0.8-0.5,1.6-0.9,2.4-1.2c1.6-0.3,3.3-0.4,4.9-0.3c-0.2-1.8,1.8-1.8,3.1-2.3c1.1-0.6,2-1.4,2.7-2.4c1-1.4,1.8-2.6,2.8-4
		c0.6-0.3,1.1-0.8,2-0.7C70.9,0.3,71,0.4,71.2,0.5L71.2,0.5z M42.3,15.4c-1.3,2.4-2.4,4.9-3.9,7.2c-1,0.5-2.1,1.4-3.2,1.8
		c-0.6,0.2-1.6,0.2-1.7,1c0.7,0.2,1.5,0.1,2.1-0.2c0.6-0.3,1.3-0.4,2-0.5c2-0.3,2.9,0.7,4.6,0.6c0.8-0.8,1.4-1.7,2.1-2.6
		c0.6-0.4,1.1-0.9,1.6-1.4c-0.6-0.3-1.2-0.7-1.7-1.2c-0.7-1.1-1.1-2.3-1.4-3.5c-0.1-0.4-0.2-0.8-0.5-1.1H42.3z"/>
	<path class="st0" d="M16.8,69.2v1.8h-4.6v2.2h4v1.6h-4v3.9h-2.1v-9.5H16.8z M20.1,69.2v9.5H18v-9.5H20.1z M27.5,78.6
		c-0.4,0.2-0.9,0.3-1.4,0.3c-0.7,0-1.4-0.1-2-0.4c-0.6-0.2-1.1-0.6-1.5-1c-0.4-0.5-0.7-1-0.9-1.6c-0.2-0.6-0.3-1.3-0.3-1.9
		c0-0.7,0.1-1.4,0.3-2c0.2-0.6,0.5-1.1,0.9-1.6c0.4-0.5,0.9-0.8,1.5-1.1c0.6-0.3,1.3-0.4,2-0.4c0.5,0,1,0.1,1.4,0.2
		c0.4,0.1,0.9,0.4,1.2,0.6c0.4,0.3,0.7,0.6,0.9,1c0.2,0.4,0.4,0.9,0.4,1.4h-2c-0.1-0.5-0.3-0.9-0.7-1.2c-0.4-0.3-0.8-0.4-1.3-0.4
		c-0.4,0-0.8,0.1-1.2,0.3c-0.3,0.2-0.6,0.4-0.8,0.7c-0.2,0.3-0.4,0.6-0.4,1c-0.1,0.4-0.2,0.8-0.2,1.2c0,0.4,0,0.8,0.2,1.2
		c0.1,0.4,0.2,0.7,0.4,1c0.2,0.3,0.5,0.5,0.8,0.7c0.4,0.2,0.8,0.3,1.2,0.3c1.1,0.1,2.1-0.6,2.3-1.7c0-0.1,0-0.2,0-0.4h-2.1v-1.5h4
		v5.1H29l-0.2-1.1C28.5,78.1,28,78.4,27.5,78.6L27.5,78.6z M34.1,69.2v3.7H38v-3.7h2.1v9.5H38v-4.1h-3.9v4.1H32v-9.5H34.1z
		 M41.1,70.9v-1.8h7.8v1.8h-2.8v7.8H44v-7.8H41.1z M52.1,69.2v9.5H50v-9.5H52.1z M56,69.2l4,6.4l0,0v-6.4h2v9.5h-2.1L56,72.3l0,0
		v6.4h-2v-9.5H56z M69.5,78.6c-0.4,0.2-0.9,0.3-1.4,0.3c-0.7,0-1.4-0.1-2-0.4c-0.6-0.2-1.1-0.6-1.5-1c-0.4-0.5-0.7-1-0.9-1.6
		c-0.4-1.3-0.4-2.6,0-3.9c0.2-0.6,0.5-1.1,0.9-1.6c0.4-0.5,0.9-0.8,1.5-1.1c0.6-0.3,1.3-0.4,2-0.4c0.5,0,1,0.1,1.4,0.2
		c0.4,0.1,0.9,0.4,1.2,0.6c0.4,0.3,0.7,0.6,0.9,1c0.2,0.4,0.4,0.9,0.4,1.4h-2c-0.1-0.5-0.3-0.9-0.7-1.2c-0.4-0.3-0.8-0.4-1.3-0.4
		c-0.4,0-0.8,0.1-1.2,0.3c-0.3,0.2-0.6,0.4-0.8,0.7c-0.2,0.3-0.4,0.6-0.4,1c-0.1,0.4-0.1,0.8-0.1,1.2c0,0.4,0,0.8,0.1,1.2
		c0.1,0.4,0.2,0.7,0.4,1c0.2,0.3,0.5,0.5,0.8,0.7c0.4,0.2,0.8,0.3,1.2,0.3c1.1,0.1,2.1-0.6,2.2-1.7c0-0.1,0-0.2,0-0.2h-2.1v-1.6h4
		v5.1h-1.3l-0.2-1.1C70.4,78.1,70,78.4,69.5,78.6L69.5,78.6z M20.7,85.2l3.6,9.5h-2.2l-0.7-2.1h-3.6l-0.7,2.1H15l3.6-9.5H20.7z
		 M20.8,91l-1.2-3.5l0,0L18.3,91H20.8z M27.2,85.2l4,6.4l0,0v-6.4h2v9.5h-2.1l-4-6.4l0,0v6.4h-2v-9.5H27.2z M37.1,85.2v9.5H35v-9.5
		H37.1z M41.9,85.2l2.2,6.5l0,0l2.1-6.5h3v9.5h-2V88l0,0l-2.3,6.7h-1.6L40.9,88l0,0v6.7h-2v-9.5H41.9z M55.8,85.2l3.6,9.5h-2.2
		l-0.7-2.1h-3.6l-0.7,2.1H50l3.6-9.5H55.8z M55.9,91l-1.2-3.5l0,0L53.4,91H55.9z M62.2,85.2v7.8h4.6v1.8h-6.7v-9.5H62.2z M12.5,103
		v-1.8h7.8v1.8h-2.9v7.8h-2.1V103H12.5z M28.5,101.2v1.8h-5v2h4.6v1.6h-4.6v2.3h5.1v1.8h-7.2v-9.5L28.5,101.2z M31.6,108.4
		c0.1,0.2,0.3,0.4,0.5,0.5c0.2,0.1,0.4,0.3,0.7,0.3c0.3,0.1,0.5,0.1,0.8,0.1c0.2,0,0.4,0,0.6,0c0.2,0,0.4-0.1,0.6-0.2
		c0.2-0.1,0.3-0.2,0.5-0.4c0.1-0.2,0.2-0.4,0.2-0.6c0-0.2-0.1-0.5-0.2-0.6c-0.2-0.2-0.4-0.3-0.7-0.4c-0.3-0.1-0.6-0.2-0.9-0.3
		c-0.3-0.1-0.7-0.2-1-0.3c-0.3-0.1-0.7-0.2-1-0.3c-0.3-0.1-0.6-0.3-0.9-0.5c-0.3-0.2-0.5-0.5-0.7-0.8c-0.2-0.3-0.3-0.7-0.2-1.1
		c0-0.4,0.1-0.9,0.3-1.3c0.2-0.4,0.5-0.7,0.8-0.9c0.3-0.2,0.7-0.4,1.2-0.5c0.4-0.1,0.8-0.2,1.3-0.2c0.5,0,1,0,1.4,0.2
		c0.4,0.1,0.9,0.3,1.2,0.5c0.4,0.3,0.6,0.6,0.8,1c0.2,0.4,0.3,0.9,0.3,1.4h-2c0-0.2-0.1-0.5-0.2-0.7c-0.1-0.2-0.2-0.3-0.4-0.4
		c-0.2-0.1-0.4-0.2-0.6-0.2c-0.2,0-0.5-0.1-0.7-0.1c-0.2,0-0.3,0-0.5,0.1c-0.2,0-0.3,0.1-0.5,0.2c-0.1,0.1-0.2,0.2-0.3,0.3
		c-0.1,0.2-0.1,0.3-0.1,0.5c0,0.2,0,0.3,0.1,0.4c0.1,0.1,0.3,0.3,0.4,0.3c0.3,0.1,0.6,0.2,0.9,0.3l1.4,0.4c0.2,0,0.4,0.1,0.7,0.2
		c0.3,0.1,0.7,0.3,0.9,0.4c0.3,0.2,0.6,0.5,0.8,0.8c0.2,0.4,0.4,0.8,0.3,1.3c0,0.4-0.1,0.8-0.2,1.2c-0.2,0.4-0.4,0.7-0.8,1
		c-0.4,0.3-0.8,0.5-1.2,0.6c-0.6,0.2-1.1,0.2-1.7,0.2c-0.5,0-1-0.1-1.5-0.2c-0.5-0.1-0.9-0.3-1.3-0.6c-0.4-0.3-0.7-0.6-0.9-1
		c-0.2-0.5-0.3-1-0.3-1.5h2c0,0.3,0.1,0.6,0.2,0.8L31.6,108.4z M37.9,103v-1.8h7.8v1.8h-2.8v7.8h-2.1V103H37.9z M48.9,101.2v9.5
		h-2.1v-9.5L48.9,101.2z M52.9,101.2l4,6.4l0,0v-6.4h2v9.5h-2.1l-4-6.4l0,0v6.4h-2v-9.5L52.9,101.2L52.9,101.2z M66.3,110.7
		c-0.4,0.2-0.9,0.3-1.4,0.3c-0.7,0-1.4-0.1-2-0.4c-0.6-0.2-1.1-0.6-1.5-1c-0.4-0.5-0.7-1-0.9-1.6c-0.2-0.6-0.3-1.3-0.3-1.9
		c0-0.7,0.1-1.4,0.3-2c0.2-0.6,0.5-1.1,0.9-1.6c0.4-0.5,0.9-0.8,1.5-1.1c0.6-0.3,1.3-0.4,2-0.4c0.5,0,1,0.1,1.4,0.2
		c0.4,0.1,0.9,0.4,1.2,0.6c0.4,0.3,0.7,0.7,0.9,1.1c0.2,0.4,0.4,0.9,0.4,1.4h-2c-0.1-0.5-0.3-0.9-0.7-1.2c-0.4-0.3-0.8-0.4-1.3-0.4
		c-0.4,0-0.8,0.1-1.2,0.3c-0.3,0.2-0.6,0.4-0.8,0.7c-0.2,0.3-0.4,0.6-0.4,1c-0.2,0.8-0.2,1.6,0,2.4c0.1,0.4,0.2,0.7,0.4,1
		c0.2,0.3,0.5,0.5,0.8,0.7c0.4,0.2,0.8,0.3,1.2,0.3c1.1,0.1,2.1-0.6,2.3-1.7c0-0.1,0-0.2,0-0.3h-2.1v-1.6h4v5.1h-1.3l-0.2-1.1
		C67.2,110,66.8,110.4,66.3,110.7L66.3,110.7z"/>
</g>
</svg>
