<svg xmlns="http://www.w3.org/2000/svg" viewBox="0 0 534.89 239.56"><defs><style>.cls-1{fill:#fff;}</style></defs><g id="레이어_2" data-name="레이어 2"><g id="레이어_1-2" data-name="레이어 1"><path class="cls-1" d="M.21,3.37H43.75V108.44h62.53v36.21H.21Z"/><path class="cls-1" d="M253.1,90q0,58-64.31,58-64.51,0-64.51-58V3.37h43.54v77q0,7.53.49,12.47a34.9,34.9,0,0,0,2.37,9.6,15.93,15.93,0,0,0,6.34,7.52c3,1.91,7,2.86,12,2.86s8.77-1,11.67-2.86a16,16,0,0,0,6.24-7.52,32.4,32.4,0,0,0,2.27-9.6q.41-4.95.4-12.47v-77H253.1Z"/><path class="cls-1" d="M309.7,97.16a26.07,26.07,0,0,0,1.58,9.3,13.37,13.37,0,0,0,7.82,8,34.14,34.14,0,0,0,13,2.28,32.07,32.07,0,0,0,6-.59,22.74,22.74,0,0,0,5.84-2,11.13,11.13,0,0,0,4.45-4,11.31,11.31,0,0,0,1.69-6.33,7.59,7.59,0,0,0-1.39-4.65A13.19,13.19,0,0,0,344,95.67a59.8,59.8,0,0,0-8.91-3.46q-5.64-1.77-15.54-4.55l-2.37-.59q-11.48-3.36-18.31-5.84a57.59,57.59,0,0,1-13.15-6.82,33.31,33.31,0,0,1-10.2-11.19q-3.85-6.82-3.86-16.52A44.32,44.32,0,0,1,276.36,26,40.91,40.91,0,0,1,289,11.28a56.53,56.53,0,0,1,18.2-8.51A81.9,81.9,0,0,1,328.7,0a95.56,95.56,0,0,1,22.36,2.47,56.35,56.35,0,0,1,18.4,7.92,40,40,0,0,1,13,14.35q4.86,8.9,5.25,21.37H346.51v-1a5.73,5.73,0,0,0,.19-1q0-5.73-5.34-9.3a18.77,18.77,0,0,0-5.93-2.66,26.77,26.77,0,0,0-6.93-.89,27.21,27.21,0,0,0-10.79,2.07,7.46,7.46,0,0,0-4.84,7.43q.38,5.34,7.12,8.21t21.17,6.43q9.1,2.18,12.67,3.16a119.82,119.82,0,0,1,15.34,5.35,50.26,50.26,0,0,1,12.36,7.61,33.59,33.59,0,0,1,8.8,11.58,37.53,37.53,0,0,1,3.27,16.23q0,13.26-5.54,22.66a43.43,43.43,0,0,1-14.84,15.13,66.5,66.5,0,0,1-20.87,8.31A110.37,110.37,0,0,1,328.3,148a98.18,98.18,0,0,1-17.91-1.88,72.21,72.21,0,0,1-20.18-7.23,45.76,45.76,0,0,1-17-15.63q-6.82-10.29-7-26.12Z"/><path class="cls-1" d="M407.06,3.37H450.6V52.44h40.75V3.37h43.54V144.65H491.35v-56H450.6v56H407.06Z"/><path class="cls-1" d="M0,164.38H9.91v35.54l35.65-35.54H59.25l-31,29.88,31.62,43.31H47L21,201.35,9.91,212v25.54H0Z"/><path class="cls-1" d="M74.09,228.93Q64.23,218.3,64.23,201t9.86-28q9.85-10.65,25.79-10.66T125.75,173q9.83,10.65,9.83,28t-9.83,27.91q-9.84,10.63-25.87,10.63T74.09,228.93Zm44.26-6.35q7-8.21,7-21.56t-7-21.63q-7-8.25-18.47-8.24t-18.42,8.24q-7,8.24-7,21.63t7,21.56q7,8.22,18.42,8.22T118.35,222.58Z"/><path class="cls-1" d="M148.53,164.38h34.05q11.65,0,17.73,5.05t6.07,14.81q0,9.62-6.32,15a22.84,22.84,0,0,1-3.43,2.39l1.64.8q6.67,3.83,6.92,12.89l.4,13.35a11.84,11.84,0,0,0,.84,4.73,6.17,6.17,0,0,0,2.89,2.49v1.59H197.14a21.22,21.22,0,0,1-.8-4.68q-.39-3.78-.59-8.42l-.22-5.77q-.21-6.83-3.34-9.74T181.94,206h-23.5v31.57h-9.91Zm9.91,33.06h24.49q6.87,0,10.06-3t3.19-9.54q0-6.33-3.36-9.26t-10.63-2.94H158.44Z"/><path class="cls-1" d="M222,237.57V164.38H275.5v8.76H231.88V195.5h39.83v8.76H231.88v24.55H276v8.76Z"/><path class="cls-1" d="M310.3,164.38h11.3l26.29,73.19H337.26l-7.46-21.21H300.57l-7.69,21.21H282.67Zm-6.58,43.22h23l-11.29-32.47h0Z"/></g></g></svg>