<svg id="레이어_1" data-name="레이어 1" xmlns="http://www.w3.org/2000/svg" viewBox="0 0 100 100"><defs><style>.cls-1{fill:none;stroke:#000;stroke-miterlimit:10;}</style></defs><line class="cls-1" x1="96.66" y1="32.04" x2="3.34" y2="67.96"/><line class="cls-1" x1="32.04" y1="3.34" x2="67.96" y2="96.66"/><line class="cls-1" x1="70.3" y1="4.3" x2="29.7" y2="95.7"/><line class="cls-1" x1="4.3" y1="29.7" x2="95.7" y2="70.3"/><line class="cls-1" x1="70.3" y1="4.3" x2="29.7" y2="95.7"/><line class="cls-1" x1="4.3" y1="29.7" x2="95.7" y2="70.3"/><line class="cls-1" x1="32.04" y1="3.34" x2="67.96" y2="96.66"/><line class="cls-1" x1="3.34" y1="67.96" x2="96.66" y2="32.04"/><line class="cls-1" x1="85.36" y1="14.64" x2="14.64" y2="85.36"/><line class="cls-1" x1="14.64" y1="14.64" x2="85.36" y2="85.36"/><line class="cls-1" x1="50" x2="50" y2="100"/><line class="cls-1" y1="50" x2="100" y2="50"/><line class="cls-1" x1="50" x2="50" y2="100"/><line class="cls-1" y1="50" x2="100" y2="50"/><line class="cls-1" x1="14.64" y1="14.64" x2="85.36" y2="85.36"/><line class="cls-1" x1="14.64" y1="85.36" x2="85.36" y2="14.64"/></svg>