<svg id="레이어_1" data-name="레이어 1" xmlns="http://www.w3.org/2000/svg" viewBox="0 0 468.03 78.08"><defs><style>.cls-1{fill:#fff;}</style></defs><path class="cls-1" d="M0,1.74H23V57.16h33v19.1H0Z" transform="translate(0.02 0.04)"/><path class="cls-1" d="M133.38,47.45Q133.38,78,99.46,78t-34-30.59V1.74h23v40.6q0,4,.26,6.58A18.23,18.23,0,0,0,89.91,54a8.32,8.32,0,0,0,3.34,4,11.42,11.42,0,0,0,6.31,1.52,11,11,0,0,0,6.16-1.52A8.44,8.44,0,0,0,109,54a17.14,17.14,0,0,0,1.2-5.06q.21-2.61.21-6.58V1.74h23Z" transform="translate(0.02 0.04)"/><path class="cls-1" d="M163.23,51.21a13.63,13.63,0,0,0,.84,4.91,7,7,0,0,0,4.12,4.22A18,18,0,0,0,175,61.55a16.65,16.65,0,0,0,3.18-.32,11.78,11.78,0,0,0,3.08-1,5.86,5.86,0,0,0,2.35-2.09,6,6,0,0,0,.89-3.34,4,4,0,0,0-.74-2.45,6.85,6.85,0,0,0-2.45-1.88,31.56,31.56,0,0,0-4.69-1.83q-3-.93-8.2-2.4l-1.25-.31q-6.06-1.77-9.66-3.08a30.8,30.8,0,0,1-6.94-3.6,17.49,17.49,0,0,1-5.37-5.9,17.4,17.4,0,0,1-2-8.71,23.36,23.36,0,0,1,2.46-10.91,21.6,21.6,0,0,1,6.67-7.78,29.8,29.8,0,0,1,9.61-4.49A43.15,43.15,0,0,1,173.25,0a50.41,50.41,0,0,1,11.8,1.31,29.87,29.87,0,0,1,9.71,4.17A21.13,21.13,0,0,1,201.59,13a24.9,24.9,0,0,1,2.77,11.27H182.65v-.52a2.91,2.91,0,0,0,.1-.52,5.68,5.68,0,0,0-2.82-4.91,9.93,9.93,0,0,0-3.13-1.4,13.9,13.9,0,0,0-3.65-.48,14.29,14.29,0,0,0-5.69,1.1,3.92,3.92,0,0,0-2.56,3.92c.14,1.87,1.39,3.32,3.76,4.33a81.56,81.56,0,0,0,11.17,3.39c3.2.77,5.43,1.32,6.68,1.67a60.84,60.84,0,0,1,8.09,2.82,26.59,26.59,0,0,1,6.52,4,17.83,17.83,0,0,1,4.65,6.11,19.88,19.88,0,0,1,1.72,8.56,23.21,23.21,0,0,1-2.92,12,23,23,0,0,1-7.83,8,35.26,35.26,0,0,1-11,4.38A58.65,58.65,0,0,1,173.05,78a50.89,50.89,0,0,1-9.45-1A37.76,37.76,0,0,1,153,73.23,24.18,24.18,0,0,1,144,65q-3.6-5.43-3.7-13.78Z" transform="translate(0.02 0.04)"/><path class="cls-1" d="M214.59,1.74h23V27.62h21.5V1.74h23V76.26h-23V46.72h-21.5V76.26h-23Z" transform="translate(0.02 0.04)"/><path class="cls-1" d="M294.21,38.91h5V56.66L317,38.91h6.84l-15.5,14.93,15.79,21.63h-6.43l-13-18.09-5.53,5.33V75.47h-5Z" transform="translate(0.02 0.04)"/><path class="cls-1" d="M331.23,71.16q-4.92-5.32-4.93-13.95t4.93-14a16.72,16.72,0,0,1,12.88-5.32q8,0,12.93,5.32t4.91,14q0,8.64-4.91,13.95a18.34,18.34,0,0,1-25.81,0ZM353.34,68q3.51-4.1,3.51-10.77T353.34,46.4a12.39,12.39,0,0,0-18.43,0q-3.51,4.13-3.51,10.81T334.91,68a12.39,12.39,0,0,0,18.43,0Z" transform="translate(0.02 0.04)"/><path class="cls-1" d="M368.42,38.91h17q5.82,0,8.86,2.52t3,7.4a9.36,9.36,0,0,1-3.16,7.51,11.41,11.41,0,0,1-1.71,1.2l.82.39q3.33,1.92,3.45,6.45l.2,6.66a6,6,0,0,0,.43,2.37,3,3,0,0,0,1.44,1.24v.8H392.7a11.29,11.29,0,0,1-.4-2.34c-.13-1.26-.23-2.66-.29-4.21L391.9,66q-.11-3.4-1.67-4.86c-1.05-1-2.75-1.46-5.12-1.46H373.37V75.47h-4.95Zm4.95,16.51H385.6q3.43,0,5-1.5c1.06-1,1.59-2.59,1.59-4.77a5.83,5.83,0,0,0-1.68-4.62q-1.68-1.47-5.31-1.47H373.37Z" transform="translate(0.02 0.04)"/><path class="cls-1" d="M405.11,75.47V38.91h26.74v4.37H410.06V54.45H430v4.38h-19.9V71.09h22.06v4.38Z" transform="translate(0.02 0.04)"/><path class="cls-1" d="M449.23,38.91h5.65L468,75.47H462.7L459,64.87h-14.6l-3.85,10.6h-5.1ZM446,60.5h11.51l-5.64-16.22h0Z" transform="translate(0.02 0.04)"/></svg>