<svg id="레이어_1" data-name="레이어 1" xmlns="http://www.w3.org/2000/svg" viewBox="0 0 247.89 414.35"><path d="M259.44,30.18V62.56H181.29v46.51H154.36V30.18Z" transform="translate(-14.06 -19.32)"/><path d="M195,218.27q-43.12,0-43.13-47.83,0-48,43.13-48h64.46v32.38H202.19q-5.59,0-9.27.36a25.69,25.69,0,0,0-7.14,1.77,11.76,11.76,0,0,0-5.59,4.71q-2.15,3.31-2.14,8.9c0,3.63.71,6.53,2.14,8.68a11.92,11.92,0,0,0,5.59,4.65,24.21,24.21,0,0,0,7.14,1.68q3.68.3,9.27.3h57.25v32.38Z" transform="translate(-14.06 -19.32)"/><path d="M189.68,260.36a19.21,19.21,0,0,0-6.92,1.18,10,10,0,0,0-6,5.81,25.59,25.59,0,0,0-1.69,9.64,24,24,0,0,0,.44,4.49,16.84,16.84,0,0,0,1.47,4.34,8.12,8.12,0,0,0,7.66,4.57,5.69,5.69,0,0,0,3.45-1,9.82,9.82,0,0,0,2.66-3.46,44.07,44.07,0,0,0,2.57-6.62q1.32-4.2,3.39-11.56l.44-1.76q2.49-8.55,4.34-13.62a43.44,43.44,0,0,1,5.07-9.79,23.69,23.69,0,0,1,20.61-10.45,33,33,0,0,1,15.38,3.46,30.33,30.33,0,0,1,11,9.42,41.74,41.74,0,0,1,6.33,13.54,60.37,60.37,0,0,1,2.06,16,71.45,71.45,0,0,1-1.83,16.63,42.19,42.19,0,0,1-5.89,13.69,29.79,29.79,0,0,1-10.67,9.64,35.2,35.2,0,0,1-15.9,3.9V287.74h.74a4.77,4.77,0,0,0,.74.14,8,8,0,0,0,6.91-4,14,14,0,0,0,2-4.41,21.19,21.19,0,0,0-.88-13.18,5.55,5.55,0,0,0-5.53-3.6c-2.64.19-4.68,2-6.1,5.3a111.31,111.31,0,0,0-4.78,15.74c-1.09,4.52-1.87,7.66-2.36,9.42a88.94,88.94,0,0,1-4,11.41,37.73,37.73,0,0,1-5.67,9.2,24.9,24.9,0,0,1-8.61,6.54,27.9,27.9,0,0,1-12.07,2.44q-9.85,0-16.85-4.12a32.51,32.51,0,0,1-11.26-11,49.81,49.81,0,0,1-6.18-15.53,82.54,82.54,0,0,1-1.92-17.88,72.15,72.15,0,0,1,1.41-13.32,53.24,53.24,0,0,1,5.37-15,33.93,33.93,0,0,1,11.62-12.66q7.65-5.09,19.43-5.23Z" transform="translate(-14.06 -19.32)"/><path d="M259.44,332.77v32.38h-36.5v30.32h36.5v32.38H154.36V395.47H196V365.15H154.36V332.77Z" transform="translate(-14.06 -19.32)"/><path d="M142.56,30.18v10h-36l36,36.12V90.21L112.28,58.78l-43.88,32V77.76l36.69-26.35L94.28,40.22H68.4v-10Z" transform="translate(-14.06 -19.32)"/><path d="M77.15,105.25q10.77-10,28.28-10t28.35,10q10.8,10,10.8,26.13t-10.8,26.21q-10.8,10-28.35,10t-28.28-10q-10.77-10-10.77-26.21T77.15,105.25Zm6.43,44.85q8.33,7.11,21.85,7.11t21.92-7.11q8.34-7.11,8.35-18.72t-8.35-18.67q-8.35-7.11-21.92-7.11t-21.85,7.11q-8.33,7.13-8.32,18.67T83.58,150.1Z" transform="translate(-14.06 -19.32)"/><path d="M142.56,180.67v34.51q0,11.81-5.12,18t-15,6.15q-9.74,0-15.24-6.4a24.26,24.26,0,0,1-2.42-3.48l-.81,1.66q-3.88,6.77-13.06,7l-13.52.41a11.92,11.92,0,0,0-4.8.86,6.2,6.2,0,0,0-2.52,2.92H68.45V229.93a21.3,21.3,0,0,1,4.74-.81q3.84-.41,8.53-.6l5.85-.23q6.92-.19,9.86-3.38t2.95-10.39V190.71h-32v-10Zm-33.5,10v24.82q0,7,3,10.19t9.66,3.23c4.28,0,7.4-1.13,9.39-3.4s3-5.86,3-10.77V190.71Z" transform="translate(-14.06 -19.32)"/><path d="M68.4,255.09h74.16v54.23h-8.88V265.13H111v40.36h-8.88V265.13H77.28v44.75H68.4Z" transform="translate(-14.06 -19.32)"/><path d="M142.56,344.59V356L68.4,382.68V371.9l21.49-7.55V334.73L68.4,326.94V316.59Zm-43.79-6.67v23.34l32.89-11.44v0Z" transform="translate(-14.06 -19.32)"/><path d="M57.19,28.36v7.37l-36-7.64V42.51l-6.41-2V19.32Z" transform="translate(-14.06 -19.32)"/><path d="M57.19,61.18l-42.41-9V44.78l42.41,9Z" transform="translate(-14.06 -19.32)"/><path d="M14.78,66.16l42.41-1.31v7.31l-18.36-.09c-5.65,0-11.7,0-16-.25V72c3.88,1.34,10.41,4,16,6.43l18.37,7.94v7.55L14.78,74.33Z" transform="translate(-14.06 -19.32)"/><path d="M33.82,113.69V100L21.19,97.37v16.11l-6.41-2.32V88.72l42.41,9v21.53l-6.41-1.45V103.57L40.23,101.4v13.68Z" transform="translate(-14.06 -19.32)"/><path d="M14.78,132.59l42.41,1.23v7.31c-9.87-.6-24.47-1.49-31.95-2.38v.07c7.59,2.74,22.5,8.9,32,12.69V158c-8.89-.4-23.93-.77-32.06-1.39v.12c8.8,2.71,24,8.64,32.06,11.43v7.33L14.78,158.15v-7.28c6.19.3,21.55.46,29.86,1.07v-.12c-7-2.3-21.65-8.56-29.85-12Z" transform="translate(-14.06 -19.32)"/><path d="M57.19,187.12l-42.41-9v-7.37l42.41,9Z" transform="translate(-14.06 -19.32)"/><path d="M50.78,198.61V189.8l6.41,1.4v24.93l-6.41-1.39V206l-36-7.65V191Z" transform="translate(-14.06 -19.32)"/><path d="M57.19,220.56v7.37l-16.85-3.56V235l16.85,3.56v7.38l-42.41-9v-7.37l19.15,4.08V223L14.78,218.9v-7.37Z" transform="translate(-14.06 -19.32)"/><path d="M14.78,255.47l42.41,9V273c-21.79,3.45-28.7,4.42-31.08,4.61v.06c5.1.73,12.54,2.24,19.49,3.74l11.59,2.48v6.71l-42.41-9v-8.12c22.16-3.32,30.41-4.33,32.87-4.57v-.07c-5.22-.82-12.9-2.22-20.5-3.85l-12.37-2.65Z" transform="translate(-14.06 -19.32)"/><path d="M25.62,297.6l-10.84-4.48v-7.44L57.19,304v10l-42.41.79v-7.2H25.62Zm6.3,9.82c8,0,15.36.08,19.49.27v-.18c-4-1.29-11.2-4.1-19.49-7.35Z" transform="translate(-14.06 -19.32)"/><path d="M50.78,327.63v-8.81l6.41,1.39v24.94l-6.41-1.39V335l-36-7.64V320Z" transform="translate(-14.06 -19.32)"/><path d="M57.19,356.15,28.37,350c-3.92-.86-8.12-.7-8.12,4.05s4.11,5.76,8.13,6.64l28.81,6.12v7.37l-29-6.17c-7.78-1.64-14.09-4.4-14.09-14.82,0-9.64,6.33-12.26,14-10.63l29.09,6.19Z" transform="translate(-14.06 -19.32)"/><path d="M33.14,383.42l-18.36-3.85V372.2l42.41,9v11.32c0,9.56-6,12.59-13.13,10.95-5.88-1.37-7.57-5.09-8.36-7.63-1.39,2.78-4.26,4.21-10.57,2.95a84.71,84.71,0,0,0-10.35-1.64v-7.07c1.89-.06,5.29.46,10.43,1.48,5.8,1.15,7.93.24,7.93-4.19Zm6,1.33v3.54c0,4.15,1,6.87,5.25,7.78,3.89.84,6.75-.7,6.75-5.09v-3.71Z" transform="translate(-14.06 -19.32)"/><path d="M33.82,428.08V414.39l-12.63-2.64v16.12l-6.41-2.33V403.11l42.41,9v21.54l-6.41-1.45V418l-10.55-2.18v13.69Z" transform="translate(-14.06 -19.32)"/></svg>