<svg id="레이어_1" data-name="레이어 1" xmlns="http://www.w3.org/2000/svg" viewBox="0 0 509.37 78.08"><defs><style>.cls-1{fill:#fff;}</style></defs><path class="cls-1" d="M-.18,11.57h23V67h33v19.1H-.18Z" transform="translate(0.18 -9.79)"/><path class="cls-1" d="M133.21,57.29q0,30.59-33.92,30.58t-34-30.58V11.57h23v40.6c0,2.65.08,4.84.26,6.58a18.22,18.22,0,0,0,1.25,5.06,8.39,8.39,0,0,0,3.34,4,11.51,11.51,0,0,0,6.31,1.51,11,11,0,0,0,6.16-1.51,8.52,8.52,0,0,0,3.29-4,17.14,17.14,0,0,0,1.2-5.06q.21-2.61.21-6.58V11.57h23Z" transform="translate(0.18 -9.79)"/><path class="cls-1" d="M163.07,61A13.63,13.63,0,0,0,163.9,66,7.06,7.06,0,0,0,168,70.18a18.19,18.19,0,0,0,6.84,1.2,16.65,16.65,0,0,0,3.18-.32,11.42,11.42,0,0,0,3.08-1,5.86,5.86,0,0,0,2.35-2.09,6,6,0,0,0,.89-3.34,4.07,4.07,0,0,0-.73-2.45,7,7,0,0,0-2.45-1.88,32.2,32.2,0,0,0-4.7-1.83c-2-.62-4.72-1.42-8.2-2.4L167,55.72Q161,54,157.37,52.64a30.8,30.8,0,0,1-6.94-3.6A16.83,16.83,0,0,1,143,34.43a23.36,23.36,0,0,1,2.46-10.91,21.6,21.6,0,0,1,6.67-7.78,30,30,0,0,1,9.61-4.49,43.15,43.15,0,0,1,11.32-1.46,50.41,50.41,0,0,1,11.8,1.31,29.87,29.87,0,0,1,9.71,4.17,21.13,21.13,0,0,1,6.83,7.57,24.9,24.9,0,0,1,2.77,11.27H182.48v-.52a2.91,2.91,0,0,0,.1-.52,5.7,5.7,0,0,0-2.81-4.91,10,10,0,0,0-3.13-1.4,14,14,0,0,0-3.66-.47,14.29,14.29,0,0,0-5.69,1.09,3.92,3.92,0,0,0-2.55,3.92c.13,1.87,1.38,3.32,3.75,4.33A79.22,79.22,0,0,0,179.66,39c3.2.77,5.43,1.32,6.68,1.67a60.84,60.84,0,0,1,8.09,2.82,26.38,26.38,0,0,1,6.53,4,17.79,17.79,0,0,1,4.64,6.1,19.88,19.88,0,0,1,1.72,8.56,23.21,23.21,0,0,1-2.92,12,23,23,0,0,1-7.83,8,35.26,35.26,0,0,1-11,4.38,58,58,0,0,1-12.68,1.36,51.67,51.67,0,0,1-9.45-1,38.4,38.4,0,0,1-10.65-3.81,24.29,24.29,0,0,1-9-8.25q-3.59-5.43-3.7-13.78Z" transform="translate(0.18 -9.79)"/><path class="cls-1" d="M214.42,11.57h23V37.46h21.5V11.57h23V86.09h-23V56.56h-21.5V86.09h-23Z" transform="translate(0.18 -9.79)"/><path class="cls-1" d="M290.71,39.08h6.22V61.4l22.39-22.32h8.6L308.44,57.85l19.86,27.2h-8.1L303.87,62.3,296.93,69v16h-6.22Z" transform="translate(0.18 -9.79)"/><path class="cls-1" d="M337.24,79.62Q331,72.94,331.05,62.1t6.19-17.58q6.19-6.69,16.19-6.69t16.25,6.69q6.18,6.69,6.17,17.58t-6.17,17.52q-6.18,6.67-16.25,6.68T337.24,79.62Zm27.8-4q4.4-5.16,4.4-13.54T365,48.51a15.56,15.56,0,0,0-23.17,0q-4.41,5.18-4.41,13.59t4.41,13.54a15.61,15.61,0,0,0,23.17,0Z" transform="translate(0.18 -9.79)"/><path class="cls-1" d="M384,39.08h21.39q7.32,0,11.13,3.18t3.82,9.3a11.8,11.8,0,0,1-4,9.44,14.84,14.84,0,0,1-2.16,1.5l1,.5q4.18,2.41,4.35,8.1l.25,8.38a7.37,7.37,0,0,0,.53,3A3.82,3.82,0,0,0,422.16,84v1h-7.65a14.16,14.16,0,0,1-.5-2.94c-.16-1.59-.29-3.35-.37-5.29l-.14-3.62q-.12-4.29-2.1-6.12c-1.31-1.22-3.46-1.83-6.43-1.83H390.21V85.05H384Zm6.23,20.76h15.38c2.88,0,5-.63,6.32-1.89s2-3.25,2-6-.71-4.59-2.11-5.82-3.63-1.85-6.68-1.85H390.21Z" transform="translate(0.18 -9.79)"/><path class="cls-1" d="M430.11,85.05v-46h33.61v5.51H436.33v14h25v5.5h-25V79.54h27.73v5.51Z" transform="translate(0.18 -9.79)"/><path class="cls-1" d="M485.58,39.08h7.09l16.51,46H502.5l-4.68-13.32H479.47l-4.83,13.32h-6.42Zm-4.13,27.14h14.46l-7.09-20.38h0Z" transform="translate(0.18 -9.79)"/></svg>