<svg id="레이어_1" data-name="레이어 1" xmlns="http://www.w3.org/2000/svg" viewBox="0 0 78.08 509.37"><path d="M11.74,509v-23H67.16v-33h19.1V509Z" transform="translate(-9.96 0.35)"/><path d="M57.45,375.62Q88,375.62,88,409.54t-30.59,34H11.74v-23h40.6q4,0,6.58-.26A18.23,18.23,0,0,0,64,419.09a8.32,8.32,0,0,0,4-3.34,11.42,11.42,0,0,0,1.52-6.31,11,11,0,0,0-1.52-6.16A8.44,8.44,0,0,0,64,400a17.14,17.14,0,0,0-5.06-1.2q-2.61-.21-6.58-.21H11.74v-23Z" transform="translate(-9.96 0.35)"/><path d="M61.21,345.77a13.63,13.63,0,0,0,4.91-.84,7,7,0,0,0,4.22-4.12A18,18,0,0,0,71.55,334a16.65,16.65,0,0,0-.32-3.18,11.78,11.78,0,0,0-1-3.08,5.86,5.86,0,0,0-2.09-2.35,6,6,0,0,0-3.34-.89,4,4,0,0,0-2.45.74,6.85,6.85,0,0,0-1.88,2.45,31.56,31.56,0,0,0-1.83,4.69q-.93,3-2.4,8.2l-.31,1.25q-1.77,6.06-3.08,9.66a30.8,30.8,0,0,1-3.6,6.94,16.83,16.83,0,0,1-14.61,7.41,23.36,23.36,0,0,1-10.91-2.46,21.6,21.6,0,0,1-7.78-6.67,29.8,29.8,0,0,1-4.49-9.61A43.15,43.15,0,0,1,10,335.75,50.41,50.41,0,0,1,11.27,324a29.87,29.87,0,0,1,4.17-9.71A21.13,21.13,0,0,1,23,307.41a24.9,24.9,0,0,1,11.27-2.77v21.71h-.52a2.91,2.91,0,0,0-.52-.1,5.68,5.68,0,0,0-4.91,2.82,9.93,9.93,0,0,0-1.4,3.13,13.9,13.9,0,0,0-.48,3.65,14.29,14.29,0,0,0,1.1,5.69,3.92,3.92,0,0,0,3.92,2.56c1.87-.14,3.32-1.39,4.33-3.76a81.56,81.56,0,0,0,3.39-11.17c.77-3.2,1.32-5.43,1.67-6.68a60.84,60.84,0,0,1,2.82-8.09,26.59,26.59,0,0,1,4-6.52,17.83,17.83,0,0,1,6.11-4.65,19.88,19.88,0,0,1,8.56-1.72,23.21,23.21,0,0,1,12,2.92,23,23,0,0,1,8,7.83,35.26,35.26,0,0,1,4.38,11A58.65,58.65,0,0,1,88,336a50.89,50.89,0,0,1-1,9.45,37.76,37.76,0,0,1-3.81,10.65A24.18,24.18,0,0,1,75,365q-5.43,3.6-13.78,3.7Z" transform="translate(-9.96 0.35)"/><path d="M11.74,294.41v-23H37.62V250H11.74V227H86.26v23H56.72v21.5H86.26v23Z" transform="translate(-9.96 0.35)"/><path d="M39.25,218.12V211.9H61.57L39.25,189.51v-8.6L58,200.39l27.2-19.85v8.09L62.47,205l6.7,6.94h16v6.22Z" transform="translate(-9.96 0.35)"/><path d="M79.79,171.59q-6.67,6.19-17.53,6.2t-17.57-6.2Q38,165.41,38,155.4t6.69-16.25Q51.38,133,62.26,133t17.53,6.17q6.67,6.18,6.68,16.25T79.79,171.59Zm-4-27.79q-5.16-4.41-13.54-4.41T48.68,143.8a15.54,15.54,0,0,0,0,23.17q5.18,4.41,13.58,4.41T75.8,167a15.59,15.59,0,0,0,0-23.17Z" transform="translate(-9.96 0.35)"/><path d="M39.25,124.85V103.46q0-7.32,3.17-11.13t9.31-3.82a11.8,11.8,0,0,1,9.44,4,14.84,14.84,0,0,1,1.5,2.16l.5-1q2.42-4.19,8.1-4.35L79.65,89a7.37,7.37,0,0,0,3-.53,3.76,3.76,0,0,0,1.56-1.81h1v7.65a13.21,13.21,0,0,1-2.94.5c-1.58.17-3.34.29-5.28.37l-3.63.14c-2.85.09-4.89.78-6.11,2.1s-1.83,3.46-1.83,6.44v14.76H85.22v6.22ZM60,118.63V103.24c0-2.88-.63-5-1.89-6.32s-3.26-2-6-2-4.58.71-5.81,2.11-1.85,3.64-1.85,6.68v14.92Z" transform="translate(-9.96 0.35)"/><path d="M85.22,78.73h-46V45.11h5.5V72.5h14v-25H64.3v25H79.71V44.77h5.51Z" transform="translate(-9.96 0.35)"/><path d="M39.25,23.26v-7.1l46-16.51V6.33L71.9,11V29.36l13.32,4.83v6.42Zm27.14,4.13V12.92L46,20v0Z" transform="translate(-9.96 0.35)"/></svg>